<svg class="animated" id="freepik_stories-vaccine" xmlns="http://www.w3.org/2000/svg" viewBox="0 0 500 500" width="450px" height="auto" version="1.1" xmlns:xlink="http://www.w3.org/1999/xlink" xmlns:svgjs="http://svgjs.com/svgjs">
	<style>
		svg#freepik_stories-vaccine:not(.animated) .animable {opacity: 0;}svg#freepik_stories-vaccine.animated #freepik--Virus--inject-36 {animation: 1.5s Infinite  linear floating;animation-delay: 0s;}            @keyframes floating {                0% {                    opacity: 1;                    transform: translateY(0px);                }                50% {                    transform: translateY(-10px);                }                100% {                    opacity: 1;                    transform: translateY(0px);                }            }        .animator-hidden { display: none; }
	</style>
	<g id="freepik--background-simple--inject-36" style="transform-origin: 248.869px 258.98px 0px;" class="animable">
		<path d="M417.46,110.17a217.72,217.72,0,0,0-59.33-41.64c-32.72-15.3-68.75-22.67-104.79-23.11C148,44.14,140,167.86,107.63,185.07s-91.07,19.22-93.1,88c-1.27,43.28,8.83,87.78,37.24,121.51,26,30.88,64.25,46.53,101.91,58.1,42.3,13,87.15,25.72,131.64,17,45.65-9,77.72-45.14,115.22-69.57,23.6-15.38,44.79-31.58,59.37-56.26,1.74-2.95,3.37-6,4.92-9,19.52-38.35,23.34-82.59,12.58-124.09C467.76,173.5,446,138,417.46,110.17Z" style="fill: rgb(64, 123, 255); transform-origin: 248.869px 258.98px 0px;" id="el1h9sfqp3o6c" class="animable">
		</path>
		<g id="elwklidn6v1d">
			<path d="M417.46,110.17a217.72,217.72,0,0,0-59.33-41.64c-32.72-15.3-68.75-22.67-104.79-23.11C148,44.14,140,167.86,107.63,185.07s-91.07,19.22-93.1,88c-1.27,43.28,8.83,87.78,37.24,121.51,26,30.88,64.25,46.53,101.91,58.1,42.3,13,87.15,25.72,131.64,17,45.65-9,77.72-45.14,115.22-69.57,23.6-15.38,44.79-31.58,59.37-56.26,1.74-2.95,3.37-6,4.92-9,19.52-38.35,23.34-82.59,12.58-124.09C467.76,173.5,446,138,417.46,110.17Z" style="fill: rgb(255, 255, 255); opacity: 0.7; transform-origin: 248.869px 258.98px 0px;" class="animable">
			</path>
		</g>
	</g>
	<g id="freepik--Floor--inject-36" style="transform-origin: 250px 453.08px 0px;" class="animable">
		<ellipse cx="250" cy="453.08" rx="233" ry="20.22" style="fill: rgb(38, 50, 56); transform-origin: 250px 453.08px 0px;" id="elleyplty7nnr" class="animable">
		</ellipse>
	</g>
	<g id="freepik--Plant--inject-36" style="transform-origin: 341.533px 375.479px 0px;" class="animable">
		<path d="M311.17,335.23c1.94.85,6.68.74,6.68.74s-1-3.1-1.1-3.29c-1-2.17-4.33-5.77-7-5.4a3.19,3.19,0,0,0-2.56,4C307.62,333.13,309.52,334.51,311.17,335.23Z" style="fill: rgb(38, 50, 56); transform-origin: 312.463px 331.613px 0px;" id="elyuhva4vzjeg" class="animable">
		</path>
		<path d="M312.81,349c2,.29,6.24-.94,6.58-1A55.44,55.44,0,0,0,322,355c.58,1.35,1.21,2.69,1.86,4l-.79-1.13c-1.58-1.82-5.7-4.42-8.19-3.36a3.19,3.19,0,0,0-1.41,4.54c.92,1.67,3.11,2.49,4.9,2.75s5.43-.71,6.39-1l.75,1.53c1.23,2.44,2.46,4.87,3.6,7.29.4.85.76,1.7,1.13,2.55-.35-.5-.64-.92-.69-1-1.58-1.82-5.7-4.41-8.18-3.36a3.2,3.2,0,0,0-1.42,4.54c.92,1.67,3.12,2.5,4.9,2.76s5.08-.62,6.22-.94c.35.89.7,1.77,1,2.65.19.6.41,1.16.57,1.78s.34,1.2.5,1.79c.28,1.16.57,2.35.81,3.48.18.78.33,1.54.48,2.29-.39-.85-1.18-2.5-1.27-2.63-1.28-2-5-5.23-7.57-4.57a3.19,3.19,0,0,0-2.09,4.27c.65,1.79,2.7,2.94,4.42,3.47,1.9.58,6.1.05,6.62,0,.25,1.25.48,2.48.68,3.63.71,4,1.15,7.38,1.42,9.74.05.41.09.79.13,1.14h-8.13l1,36.22h17.81l1-36.22H340.8l.17-.35c1-2.16,2.48-5.27,4-9.08.5-1.2,1-2.49,1.51-3.82.51.1,4.66,1,6.6.51,1.76-.4,3.88-1.39,4.67-3.13A3.19,3.19,0,0,0,356,381c-2.56-.86-6.47,2-7.9,4-.09.12-.86,1.46-1.34,2.32.2-.55.41-1.08.61-1.64.41-1.11.78-2.24,1.19-3.44l.54-1.79c.19-.59.31-1.24.48-1.87.34-1.46.63-3,.88-4.47,1,.35,4.45,1.56,6.26,1.44s4.05-.79,5.09-2.39a3.2,3.2,0,0,0-1.07-4.63c-2.4-1.24-6.71,1-8.41,2.74-.11.11-1.2,1.47-1.78,2.23.14-.92.29-1.83.4-2.75.33-2.68.59-5.4.85-8.11.08-.83.17-1.66.26-2.49.34.13,4.45,1.66,6.48,1.52,1.79-.13,4-.79,5.08-2.38a3.19,3.19,0,0,0-1.07-4.63c-2.4-1.24-6.7,1-8.41,2.74-.13.13-1.69,2.08-2.07,2.6.2-1.82.41-3.64.69-5.42a57,57,0,0,1,1.55-7.13c.16.06,4.44,1.68,6.51,1.53,1.8-.12,4.05-.78,5.09-2.38a3.19,3.19,0,0,0-1.07-4.63c-2.4-1.24-6.7,1-8.41,2.74-.13.13-1.82,2.24-2.09,2.64,0-.13.06-.28.1-.41a42.07,42.07,0,0,1,2.83-6.75c.61-1.2,1.27-2.31,1.93-3.38.76.38,4.29,2.09,6.16,2.16s4.12-.33,5.32-1.8a3.2,3.2,0,0,0-.55-4.73c-2.25-1.49-6.78.31-8.66,1.81-.11.08-1.06,1-1.74,1.72.31-.47.61-1,.91-1.43,1.13-1.7,2.27-3.18,3.29-4.49.59-.74,1.13-1.4,1.65-2,.95,0,4.77-.13,6.44-.92s3.49-2.19,3.88-4.06a3.19,3.19,0,0,0-2.67-3.93c-2.68-.29-5.87,3.39-6.85,5.59-.09.19-1.07,3.32-1,3.32h.06c-.51.58-1.05,1.2-1.62,1.9-1.05,1.29-2.23,2.75-3.4,4.44a57.12,57.12,0,0,0-3.52,5.6,42.26,42.26,0,0,0-3,6.77s0,.06,0,.09c0-.79,0-3,0-3.17-.31-2.39-2.32-6.83-5-7.32a3.19,3.19,0,0,0-3.69,3c-.15,1.9,1.22,3.8,2.57,5,1.51,1.36,5.72,2.67,6.05,2.77a56.84,56.84,0,0,0-1.78,7.33c-.25,1.45-.47,2.91-.67,4.38,0-.68,0-1.3,0-1.38-.31-2.39-2.31-6.83-5-7.32a3.2,3.2,0,0,0-3.68,3c-.16,1.9,1.22,3.81,2.56,5s4.92,2.4,5.87,2.7l-.21,1.7c-.32,2.71-.64,5.41-1,8.05-.14.94-.31,1.85-.47,2.76,0-.6,0-1.12,0-1.19-.31-2.39-2.32-6.83-5-7.32a3.19,3.19,0,0,0-3.69,3c-.15,1.9,1.22,3.8,2.57,5s4.57,2.29,5.7,2.66c-.2.93-.39,1.86-.63,2.75-.17.61-.29,1.2-.5,1.8s-.39,1.19-.57,1.78c-.41,1.11-.82,2.26-1.24,3.34-.29.75-.58,1.46-.87,2.18.15-.92.39-2.74.4-2.9a12.5,12.5,0,0,0-1.67-6,3.39,3.39,0,0,0,0-.71,3.2,3.2,0,0,0-3.91-2.71c-2.61.7-4.26,5.27-4.39,7.68,0,.14.09,1.69.16,2.67-.13-.57-.25-1.12-.39-1.7-.27-1.16-.58-2.3-.91-3.53-.17-.59-.35-1.18-.54-1.79s-.42-1.21-.63-1.82c-.51-1.41-1.1-2.82-1.73-4.22,1-.24,4.58-1.15,6-2.25s2.94-2.89,2.93-4.8a3.2,3.2,0,0,0-3.45-3.27c-2.69.29-5,4.57-5.5,6.93,0,.15-.19,1.88-.26,2.83-.39-.84-.76-1.68-1.18-2.51-1.2-2.42-2.49-4.83-3.77-7.23-.39-.74-.77-1.48-1.15-2.22.36-.08,4.63-1.07,6.24-2.31,1.43-1.09,2.94-2.89,2.93-4.79a3.2,3.2,0,0,0-3.45-3.27c-2.69.29-5,4.56-5.5,6.93,0,.17-.27,2.67-.29,3.3-.85-1.62-1.67-3.25-2.42-4.89A55.51,55.51,0,0,1,320,347.9c.17,0,4.63-1,6.28-2.31,1.43-1.1,2.94-2.89,2.93-4.8a3.2,3.2,0,0,0-3.45-3.27c-2.69.29-5,4.57-5.5,6.93,0,.19-.28,2.87-.29,3.36,0-.14-.1-.27-.14-.41a41.54,41.54,0,0,1-1.37-7.18c-.15-1.34-.22-2.63-.26-3.89.85-.1,4.74-.62,6.34-1.59s3.25-2.55,3.44-4.45a3.2,3.2,0,0,0-3.07-3.63c-2.7,0-5.48,4-6.23,6.28,0,.13-.31,1.44-.49,2.4,0-.57,0-1.15,0-1.69,0-2,.14-3.92.26-5.57.08-.94.17-1.79.27-2.58.78-.54,3.9-2.74,4.86-4.32s1.71-3.76,1-5.53a3.21,3.21,0,0,0-4.4-1.81c-2.4,1.24-3,6.07-2.63,8.45,0,.21.94,3.36,1,3.33l0,0c-.1.76-.21,1.58-.3,2.47-.17,1.66-.34,3.53-.38,5.58a55.53,55.53,0,0,0,.15,6.62,41.56,41.56,0,0,0,1.23,7.3l0,.09c-.43-.67-1.68-2.49-1.79-2.62-1.58-1.83-5.7-4.42-8.18-3.37a3.2,3.2,0,0,0-1.42,4.54C308.83,347.87,311,348.7,312.81,349Zm26.77,35.38c1.38,1.5,4.93,3.25,5.38,3.47-.48,1.19-1,2.34-1.43,3.41-1.62,3.74-3.11,6.78-4.19,8.9-.21.43-.41.8-.59,1.15h-.18c-.05-.41-.11-.86-.18-1.37-.33-2.38-.84-5.77-1.64-9.8-.25-1.27-.55-2.63-.86-4A34.34,34.34,0,0,0,339.58,384.34Z" style="fill: rgb(38, 50, 56); transform-origin: 341.703px 375.479px 0px;" id="elxyqo224hfs" class="animable">
		</path>
		<path d="M359.11,336.27s.86-3.15.89-3.35c.33-2.39-.43-7.2-2.86-8.37a3.2,3.2,0,0,0-4.35,1.92c-.65,1.79.18,4,1.15,5.5C355.09,333.75,359.11,336.27,359.11,336.27Z" style="fill: rgb(38, 50, 56); transform-origin: 356.316px 330.27px 0px;" id="el8jnf10n4cmk" class="animable">
		</path>
	</g>
	<g id="freepik--Virus--inject-36" style="transform-origin: 225.514px 230.334px 0px;" class="animable animator-active">
		<path d="M328.72,130.25c.24.68.81,1.77,1.42,1.77.92,0,1.67-1.34,1.67-3s-.75-3-1.67-3c-.55,0-1.1,1-1.35,1.53l-6.21-.18a28.43,28.43,0,0,0-3-11.26l8.19-5.05c.6.53,1.75,1.25,2.32.91.88-.51.86-2.19-.05-3.77s-2.36-2.44-3.24-1.93c-.52.3-.52,1.51-.44,2.2l-8.52,4.59a28.88,28.88,0,0,0-8.28-8.2l2.91-5.39c.71.14,1.94.19,2.24-.34.46-.8-.32-2.12-1.75-2.94s-3-.85-3.43,0c-.28.47.27,1.43.65,1.93L307,103.36a28.55,28.55,0,0,0-11.24-3l-.28-9.62c.76-.26,1.95-.89,1.95-1.56,0-1-1.47-1.84-3.29-1.84s-3.3.82-3.3,1.84c0,.6,1.05,1.21,1.69,1.48l-.28,9.7a28.55,28.55,0,0,0-11.24,3l-3.22-5.22c.48-.54,1.13-1.58.83-2.11-.46-.8-2-.78-3.43,0s-2.22,2.14-1.75,2.94c.27.48,1.37.48,2,.4l3,5.45a29,29,0,0,0-8.28,8.2l-8.45-4.55c.15-.78.2-2.13-.38-2.47-.88-.51-2.33.36-3.24,1.93s-.93,3.27-.05,3.78c.52.3,1.57-.31,2.12-.73l8.26,5.09a28.48,28.48,0,0,0-3,11.26l-6.14.18c-.24-.68-.81-1.77-1.42-1.77-.92,0-1.67,1.34-1.67,3s.75,3,1.67,3c.55,0,1.1-1,1.35-1.53l6.21.18a28.48,28.48,0,0,0,3,11.26l-8.19,5c-.6-.52-1.74-1.24-2.32-.9-.88.5-.86,2.19.05,3.77s2.36,2.44,3.24,1.93c.52-.3.52-1.51.44-2.2l8.52-4.6a28.91,28.91,0,0,0,8.28,8.21l-2.91,5.38c-.71-.14-1.94-.18-2.24.34-.46.81.32,2.13,1.75,3s3,.85,3.43,0c.28-.48-.27-1.43-.65-1.93l3.25-5.28a28.55,28.55,0,0,0,11.24,3.05l.28,9.62c-.76.26-1.95.89-1.95,1.56,0,1,1.48,1.84,3.29,1.84s3.3-.82,3.3-1.84c0-.6-1.05-1.21-1.69-1.48l.28-9.7A28.55,28.55,0,0,0,307,154.45l3.22,5.22c-.48.54-1.13,1.58-.83,2.11.46.8,2,.78,3.43-.05s2.22-2.14,1.75-2.95c-.27-.47-1.37-.47-2-.39l-2.95-5.46a28.63,28.63,0,0,0,8.28-8.2l8.45,4.56c-.15.78-.2,2.13.38,2.47.88.51,2.33-.36,3.24-1.93s.93-3.27.05-3.78c-.52-.3-1.57.31-2.12.72l-8.26-5.08a28.48,28.48,0,0,0,3-11.27Z" style="fill: none; stroke: rgb(120, 120, 120); stroke-linecap: round; stroke-linejoin: round; transform-origin: 294px 128.891px 0px;" id="elnchzkzt9gjj" class="animable">
		</path>
		<path d="M296.21,107a3,3,0,1,1-3-2.81A2.89,2.89,0,0,1,296.21,107Z" style="fill: none; stroke: rgb(120, 120, 120); stroke-linecap: round; stroke-linejoin: round; transform-origin: 293.217px 107.189px 0px;" id="el1qqj3izb4s8" class="animable">
		</path>
		<path d="M278.37,129.75a3,3,0,1,1-2.95-2.81A2.88,2.88,0,0,1,278.37,129.75Z" style="fill: none; stroke: rgb(120, 120, 120); stroke-linecap: round; stroke-linejoin: round; transform-origin: 275.377px 129.941px 0px;" id="elfalvvix4oqw" class="animable">
		</path>
		<path d="M291.59,122.44a3,3,0,1,1-3-2.81A2.89,2.89,0,0,1,291.59,122.44Z" style="fill: none; stroke: rgb(120, 120, 120); stroke-linecap: round; stroke-linejoin: round; transform-origin: 288.598px 122.629px 0px;" id="el89l5p0bcyap" class="animable">
		</path>
		<path d="M284.7,146.9a3,3,0,1,1-3-2.81A2.89,2.89,0,0,1,284.7,146.9Z" style="fill: none; stroke: rgb(120, 120, 120); stroke-linecap: round; stroke-linejoin: round; transform-origin: 281.707px 147.088px 0px;" id="el9b4o7xv547v" class="animable">
		</path>
		<path d="M316.89,135.09a3,3,0,1,1-2.95-2.81A2.88,2.88,0,0,1,316.89,135.09Z" style="fill: none; stroke: rgb(120, 120, 120); stroke-linecap: round; stroke-linejoin: round; transform-origin: 313.896px 135.281px 0px;" id="eliy5fe9i0p3f" class="animable">
		</path>
		<path d="M295.76,138.93a3,3,0,1,1-2.95-2.81A2.88,2.88,0,0,1,295.76,138.93Z" style="fill: none; stroke: rgb(120, 120, 120); stroke-linecap: round; stroke-linejoin: round; transform-origin: 292.768px 139.121px 0px;" id="eliteflniuk5" class="animable">
		</path>
		<path d="M305.32,127.69a3,3,0,1,1-2.95-2.82A2.88,2.88,0,0,1,305.32,127.69Z" style="fill: none; stroke: rgb(120, 120, 120); stroke-linecap: round; stroke-linejoin: round; transform-origin: 302.324px 127.869px 0px;" id="elmh2nu6jqr3b" class="animable">
		</path>
		<path d="M312.46,114.59a3,3,0,1,1-2.95-2.82A2.88,2.88,0,0,1,312.46,114.59Z" style="fill: none; stroke: rgb(120, 120, 120); stroke-linecap: round; stroke-linejoin: round; transform-origin: 309.465px 114.77px 0px;" id="elpu3cox3lyhn" class="animable">
		</path>
		<path d="M305.64,148.31a3,3,0,1,1-2.95-2.82A2.88,2.88,0,0,1,305.64,148.31Z" style="fill: none; stroke: rgb(120, 120, 120); stroke-linecap: round; stroke-linejoin: round; transform-origin: 302.645px 148.488px 0px;" id="el2fdyhz0npxb" class="animable">
		</path>
		<path d="M281.46,112a3,3,0,1,1-2.95-2.81A2.88,2.88,0,0,1,281.46,112Z" style="fill: none; stroke: rgb(120, 120, 120); stroke-linecap: round; stroke-linejoin: round; transform-origin: 278.467px 112.191px 0px;" id="el3in1kmjiusg" class="animable">
		</path>
		<path d="M350.06,223.55c.11.32.37.82.65.82.43,0,.78-.62.78-1.38s-.35-1.39-.78-1.39c-.25,0-.5.44-.62.71l-2.86-.08a13.19,13.19,0,0,0-1.37-5.2l3.78-2.32c.28.24.8.57,1.07.42s.4-1,0-1.74-1.09-1.13-1.5-.89c-.24.13-.24.69-.2,1l-3.93,2.12a13.1,13.1,0,0,0-3.82-3.78l1.34-2.49c.33.07.9.09,1-.16s-.15-1-.81-1.36-1.37-.39-1.59,0c-.12.22.13.66.31.89l-1.5,2.44a13.18,13.18,0,0,0-5.19-1.41l-.13-4.44c.35-.12.9-.41.9-.71,0-.47-.68-.85-1.52-.85s-1.51.38-1.51.85c0,.27.48.55.77.68l-.13,4.47a13.13,13.13,0,0,0-5.18,1.41l-1.48-2.41c.22-.25.52-.73.38-1s-.92-.36-1.59,0-1,1-.8,1.36c.12.22.63.22.92.18l1.35,2.52a13.32,13.32,0,0,0-3.81,3.78l-3.9-2.1c.07-.36.09-1-.17-1.14-.41-.23-1.08.16-1.5.89s-.43,1.51,0,1.74c.24.14.72-.14,1-.33l3.8,2.35a13.09,13.09,0,0,0-1.36,5.19l-2.83.08c-.11-.32-.38-.82-.66-.82s-.77.62-.77,1.39.35,1.38.77,1.38c.26,0,.51-.44.62-.71l2.87.08a13.35,13.35,0,0,0,1.36,5.2l-3.77,2.32c-.28-.24-.81-.57-1.07-.42-.41.24-.4,1,0,1.75s1.09,1.12,1.5.89c.24-.14.24-.7.2-1l3.93-2.12a13.19,13.19,0,0,0,3.81,3.78l-1.34,2.49c-.32-.06-.89-.09-1,.16s.15,1,.81,1.36,1.37.39,1.58,0c.13-.22-.13-.66-.3-.89l1.5-2.44a13.13,13.13,0,0,0,5.18,1.41l.13,4.44c-.35.12-.9.41-.9.71,0,.47.68.86,1.52.86s1.52-.39,1.52-.86c0-.27-.48-.55-.78-.68l.13-4.47a13.18,13.18,0,0,0,5.19-1.41l1.48,2.41c-.22.25-.52.73-.38,1s.92.36,1.58,0,1-1,.81-1.36c-.13-.22-.63-.22-.92-.18L341.24,234a13.1,13.1,0,0,0,3.82-3.78l3.9,2.1c-.07.36-.1,1,.17,1.14s1.08-.16,1.5-.89.43-1.51,0-1.74c-.24-.14-.73.14-1,.33l-3.81-2.34a13.19,13.19,0,0,0,1.37-5.2Z" style="fill: none; stroke: rgb(120, 120, 120); stroke-linecap: round; stroke-linejoin: round; transform-origin: 334.045px 222.92px 0px;" id="elpqy5kfupjo" class="animable">
		</path>
		<ellipse cx="333.7" cy="212.83" rx="1.36" ry="1.3" style="fill: none; stroke: rgb(120, 120, 120); stroke-linecap: round; stroke-linejoin: round; transform-origin: 333.7px 212.83px 0px;" id="elrdi6mh87rp" class="animable">
		</ellipse>
		<path d="M326.84,223.32a1.37,1.37,0,1,1-1.37-1.3A1.33,1.33,0,0,1,326.84,223.32Z" style="fill: none; stroke: rgb(120, 120, 120); stroke-linecap: round; stroke-linejoin: round; transform-origin: 325.471px 223.389px 0px;" id="el580g6v2w43o" class="animable">
		</path>
		<path d="M332.93,220a1.36,1.36,0,1,1-1.36-1.3A1.33,1.33,0,0,1,332.93,220Z" style="fill: none; stroke: rgb(120, 120, 120); stroke-linecap: round; stroke-linejoin: round; transform-origin: 331.57px 220.059px 0px;" id="els4e7jlxzip" class="animable">
		</path>
		<path d="M329.75,231.23a1.36,1.36,0,1,1-1.36-1.3A1.33,1.33,0,0,1,329.75,231.23Z" style="fill: none; stroke: rgb(120, 120, 120); stroke-linecap: round; stroke-linejoin: round; transform-origin: 328.391px 231.289px 0px;" id="elxhzn5ti0dva" class="animable">
		</path>
		<path d="M344.6,225.78a1.36,1.36,0,1,1-1.36-1.29A1.33,1.33,0,0,1,344.6,225.78Z" style="fill: none; stroke: rgb(120, 120, 120); stroke-linecap: round; stroke-linejoin: round; transform-origin: 343.242px 225.85px 0px;" id="elk3loqqdlg1h" class="animable">
		</path>
		<path d="M334.86,227.56a1.37,1.37,0,1,1-1.36-1.3A1.33,1.33,0,0,1,334.86,227.56Z" style="fill: none; stroke: rgb(120, 120, 120); stroke-linecap: round; stroke-linejoin: round; transform-origin: 333.49px 227.631px 0px;" id="elpyqjb0st6n" class="animable">
		</path>
		<path d="M339.27,222.37a1.37,1.37,0,1,1-1.36-1.3A1.33,1.33,0,0,1,339.27,222.37Z" style="fill: none; stroke: rgb(120, 120, 120); stroke-linecap: round; stroke-linejoin: round; transform-origin: 337.9px 222.439px 0px;" id="elkt3j4m1a1ng" class="animable">
		</path>
		<path d="M342.56,216.33a1.37,1.37,0,1,1-1.36-1.3A1.33,1.33,0,0,1,342.56,216.33Z" style="fill: none; stroke: rgb(120, 120, 120); stroke-linecap: round; stroke-linejoin: round; transform-origin: 341.191px 216.4px 0px;" id="elwdp1cskktcg" class="animable">
		</path>
		<path d="M339.42,231.88a1.37,1.37,0,1,1-1.37-1.3A1.33,1.33,0,0,1,339.42,231.88Z" style="fill: none; stroke: rgb(120, 120, 120); stroke-linecap: round; stroke-linejoin: round; transform-origin: 338.051px 231.949px 0px;" id="el2ewkpd012b4" class="animable">
		</path>
		<path d="M328.26,215.15a1.36,1.36,0,1,1-1.36-1.3A1.34,1.34,0,0,1,328.26,215.15Z" style="fill: none; stroke: rgb(120, 120, 120); stroke-linecap: round; stroke-linejoin: round; transform-origin: 326.902px 215.211px 0px;" id="elat5of013k28" class="animable">
		</path>
		<path d="M75.22,134.32c.11.32.37.82.65.82s.78-.62.78-1.38-.35-1.38-.78-1.38c-.25,0-.5.44-.62.7L72.39,133A13.09,13.09,0,0,0,71,127.81l3.78-2.33c.28.24.8.57,1.07.42s.4-1,0-1.74-1.09-1.13-1.5-.89c-.24.13-.24.69-.2,1l-3.93,2.12a13.23,13.23,0,0,0-3.82-3.78l1.34-2.49c.33.07.9.09,1-.16s-.15-1-.81-1.36-1.37-.39-1.58,0c-.13.22.12.66.3.89l-1.5,2.44A13.35,13.35,0,0,0,60,120.51l-.13-4.43c.35-.12.9-.42.9-.72,0-.47-.68-.85-1.52-.85s-1.51.38-1.51.85c0,.27.48.55.77.68l-.13,4.47a13.3,13.3,0,0,0-5.18,1.41l-1.48-2.41c.22-.25.52-.73.38-1s-.92-.36-1.58,0-1,1-.81,1.36c.12.22.63.22.92.18L52,122.62a13.32,13.32,0,0,0-3.81,3.78l-3.9-2.1c.07-.36.09-1-.17-1.14-.41-.23-1.08.16-1.5.89s-.43,1.51,0,1.74c.24.14.72-.14,1-.33l3.8,2.35A13.25,13.25,0,0,0,46,133l-2.83.08c-.11-.31-.38-.81-.66-.81s-.77.61-.77,1.38.35,1.38.77,1.38c.26,0,.51-.44.62-.71l2.87.08a13.35,13.35,0,0,0,1.36,5.2l-3.77,2.32c-.28-.24-.81-.57-1.07-.41-.41.23-.4,1,0,1.74s1.09,1.12,1.5.89c.24-.14.24-.7.2-1L48.17,141A13.1,13.1,0,0,0,52,144.78l-1.35,2.49c-.32-.06-.89-.08-1,.16s.15,1,.81,1.36,1.37.39,1.58,0c.13-.22-.13-.66-.3-.89l1.5-2.44a13,13,0,0,0,5.18,1.41l.13,4.44c-.35.12-.9.41-.9.72,0,.47.68.85,1.52.85s1.52-.38,1.52-.85c0-.28-.48-.56-.78-.69l.13-4.47a13,13,0,0,0,5.19-1.41l1.48,2.41c-.22.25-.52.73-.38,1s.92.36,1.58,0,1-1,.81-1.36c-.13-.22-.63-.22-.92-.18l-1.36-2.52A13.1,13.1,0,0,0,70.22,141l3.9,2.1c-.07.36-.1,1,.17,1.14s1.08-.16,1.5-.89.43-1.5,0-1.74c-.24-.14-.73.14-1,.33L71,139.6a13.19,13.19,0,0,0,1.37-5.2Z" style="fill: none; stroke: rgb(120, 120, 120); stroke-linecap: round; stroke-linejoin: round; transform-origin: 59.1934px 133.695px 0px;" id="elj1ys3e0xu6f" class="animable">
		</path>
		<path d="M60.22,123.6a1.36,1.36,0,1,1-1.36-1.3A1.33,1.33,0,0,1,60.22,123.6Z" style="fill: none; stroke: rgb(120, 120, 120); stroke-linecap: round; stroke-linejoin: round; transform-origin: 58.8594px 123.66px 0px;" id="elltx43zebne" class="animable">
		</path>
		<path d="M52,134.09a1.37,1.37,0,1,1-1.37-1.3A1.33,1.33,0,0,1,52,134.09Z" style="fill: none; stroke: rgb(120, 120, 120); stroke-linecap: round; stroke-linejoin: round; transform-origin: 50.6309px 134.16px 0px;" id="el2rohtaeaemt" class="animable">
		</path>
		<ellipse cx="56.73" cy="130.72" rx="1.36" ry="1.3" style="fill: none; stroke: rgb(120, 120, 120); stroke-linecap: round; stroke-linejoin: round; transform-origin: 56.73px 130.72px 0px;" id="elydlkls38r9" class="animable">
		</ellipse>
		<path d="M54.91,142a1.36,1.36,0,1,1-1.36-1.3A1.33,1.33,0,0,1,54.91,142Z" style="fill: none; stroke: rgb(120, 120, 120); stroke-linecap: round; stroke-linejoin: round; transform-origin: 53.5508px 142.059px 0px;" id="elcj4j192d0u8" class="animable">
		</path>
		<path d="M69.76,136.55a1.36,1.36,0,1,1-1.36-1.29A1.33,1.33,0,0,1,69.76,136.55Z" style="fill: none; stroke: rgb(120, 120, 120); stroke-linecap: round; stroke-linejoin: round; transform-origin: 68.4023px 136.621px 0px;" id="elafem89jj3qe" class="animable">
		</path>
		<path d="M60,138.33a1.37,1.37,0,1,1-1.36-1.3A1.33,1.33,0,0,1,60,138.33Z" style="fill: none; stroke: rgb(120, 120, 120); stroke-linecap: round; stroke-linejoin: round; transform-origin: 58.6309px 138.4px 0px;" id="el085uy64k477f" class="animable">
		</path>
		<path d="M64.43,133.14a1.37,1.37,0,1,1-1.36-1.3A1.33,1.33,0,0,1,64.43,133.14Z" style="fill: none; stroke: rgb(120, 120, 120); stroke-linecap: round; stroke-linejoin: round; transform-origin: 63.0605px 133.209px 0px;" id="el9xsh3iyanjp" class="animable">
		</path>
		<path d="M67.72,127.1a1.37,1.37,0,1,1-1.36-1.3A1.33,1.33,0,0,1,67.72,127.1Z" style="fill: none; stroke: rgb(120, 120, 120); stroke-linecap: round; stroke-linejoin: round; transform-origin: 66.3516px 127.17px 0px;" id="el4h13doczkhp" class="animable">
		</path>
		<path d="M64.58,142.65a1.37,1.37,0,1,1-1.37-1.3A1.33,1.33,0,0,1,64.58,142.65Z" style="fill: none; stroke: rgb(120, 120, 120); stroke-linecap: round; stroke-linejoin: round; transform-origin: 63.2109px 142.721px 0px;" id="elk5j59erq69" class="animable">
		</path>
		<path d="M53.42,125.92a1.36,1.36,0,1,1-1.36-1.3A1.33,1.33,0,0,1,53.42,125.92Z" style="fill: none; stroke: rgb(120, 120, 120); stroke-linecap: round; stroke-linejoin: round; transform-origin: 52.0605px 125.98px 0px;" id="elg3cyen3n8he" class="animable">
		</path>
		<path d="M378.72,61.42c.11.31.38.81.66.81s.77-.61.77-1.38-.35-1.38-.77-1.38c-.26,0-.51.44-.62.71l-2.87-.08a13.18,13.18,0,0,0-1.36-5.2l3.77-2.33c.28.25.81.58,1.07.42s.4-1,0-1.74-1.09-1.12-1.49-.89c-.24.14-.24.7-.21,1l-3.93,2.12a13.35,13.35,0,0,0-3.81-3.79l1.34-2.48c.32.06.89.08,1-.16s-.15-1-.81-1.36-1.37-.39-1.58,0,.13.66.3.89L368.69,49a12.92,12.92,0,0,0-5.18-1.41l-.13-4.44c.35-.12.9-.41.9-.72,0-.47-.68-.85-1.52-.85s-1.52.38-1.52.85c0,.28.48.56.78.68l-.13,4.48A13,13,0,0,0,356.7,49l-1.48-2.41c.22-.25.52-.73.38-1s-.92-.36-1.58,0-1,1-.81,1.36c.13.21.63.21.92.18l1.36,2.51a13.26,13.26,0,0,0-3.82,3.79l-3.9-2.1c.07-.37.1-1-.17-1.14s-1.08.16-1.5.89-.42,1.5,0,1.74c.24.14.73-.14,1-.33l3.81,2.34a13.19,13.19,0,0,0-1.37,5.2l-2.83.08c-.11-.32-.37-.82-.65-.82s-.77.62-.77,1.38.34,1.38.77,1.38c.25,0,.5-.44.62-.7l2.86.08a13.09,13.09,0,0,0,1.37,5.19L347.09,69c-.27-.24-.8-.57-1.07-.42s-.4,1,0,1.74,1.09,1.13,1.5.89c.24-.14.24-.69.2-1l3.93-2.12a13.23,13.23,0,0,0,3.82,3.78l-1.34,2.49c-.33-.07-.9-.09-1,.15s.15,1,.81,1.36,1.37.39,1.59,0-.13-.66-.31-.89l1.5-2.44A13.35,13.35,0,0,0,361.89,74l.13,4.43c-.35.12-.9.42-.9.72,0,.47.68.85,1.52.85s1.52-.38,1.52-.85c0-.27-.49-.55-.78-.68l.13-4.47a13.25,13.25,0,0,0,5.18-1.41L370.17,75c-.22.25-.52.73-.38,1s.93.36,1.59,0,1-1,.8-1.36c-.12-.22-.63-.22-.92-.18l-1.35-2.52a13.48,13.48,0,0,0,3.82-3.78l3.89,2.1c-.07.36-.09,1,.17,1.14s1.08-.17,1.5-.89.43-1.51,0-1.74c-.24-.14-.72.14-1,.33l-3.8-2.35a13.13,13.13,0,0,0,1.36-5.19Z" style="fill: none; stroke: rgb(120, 120, 120); stroke-linecap: round; stroke-linejoin: round; transform-origin: 362.719px 60.7891px 0px;" id="elh73vgop48qn" class="animable">
		</path>
		<path d="M363.73,50.7a1.37,1.37,0,1,1-1.36-1.3A1.34,1.34,0,0,1,363.73,50.7Z" style="fill: none; stroke: rgb(120, 120, 120); stroke-linecap: round; stroke-linejoin: round; transform-origin: 362.361px 50.7695px 0px;" id="elcqev9iptz5" class="animable">
		</path>
		<path d="M355.5,61.19a1.36,1.36,0,1,1-1.36-1.3A1.33,1.33,0,0,1,355.5,61.19Z" style="fill: none; stroke: rgb(120, 120, 120); stroke-linecap: round; stroke-linejoin: round; transform-origin: 354.141px 61.25px 0px;" id="elcvalacvocrw" class="animable">
		</path>
		<path d="M361.6,57.82a1.37,1.37,0,1,1-1.37-1.3A1.33,1.33,0,0,1,361.6,57.82Z" style="fill: none; stroke: rgb(120, 120, 120); stroke-linecap: round; stroke-linejoin: round; transform-origin: 360.232px 57.8887px 0px;" id="elthsottz2k6f" class="animable">
		</path>
		<path d="M358.42,69.1a1.37,1.37,0,1,1-1.36-1.3A1.34,1.34,0,0,1,358.42,69.1Z" style="fill: none; stroke: rgb(120, 120, 120); stroke-linecap: round; stroke-linejoin: round; transform-origin: 357.051px 69.1699px 0px;" id="eluhskty657uc" class="animable">
		</path>
		<path d="M373.27,63.65a1.37,1.37,0,1,1-1.36-1.3A1.33,1.33,0,0,1,373.27,63.65Z" style="fill: none; stroke: rgb(120, 120, 120); stroke-linecap: round; stroke-linejoin: round; transform-origin: 371.9px 63.7207px 0px;" id="elvizecr7btoq" class="animable">
		</path>
		<path d="M363.52,65.42a1.36,1.36,0,1,1-1.36-1.29A1.33,1.33,0,0,1,363.52,65.42Z" style="fill: none; stroke: rgb(120, 120, 120); stroke-linecap: round; stroke-linejoin: round; transform-origin: 362.16px 65.4902px 0px;" id="el9c128r1i7kc" class="animable">
		</path>
		<path d="M367.93,60.24a1.36,1.36,0,1,1-1.36-1.3A1.33,1.33,0,0,1,367.93,60.24Z" style="fill: none; stroke: rgb(120, 120, 120); stroke-linecap: round; stroke-linejoin: round; transform-origin: 366.57px 60.3008px 0px;" id="elsv0k5a4rvu" class="animable">
		</path>
		<path d="M371.22,54.19a1.36,1.36,0,1,1-1.36-1.29A1.33,1.33,0,0,1,371.22,54.19Z" style="fill: none; stroke: rgb(120, 120, 120); stroke-linecap: round; stroke-linejoin: round; transform-origin: 369.861px 54.2598px 0px;" id="elpwe718ss1ba" class="animable">
		</path>
		<path d="M368.08,69.75a1.36,1.36,0,1,1-1.36-1.3A1.33,1.33,0,0,1,368.08,69.75Z" style="fill: none; stroke: rgb(120, 120, 120); stroke-linecap: round; stroke-linejoin: round; transform-origin: 366.719px 69.8086px 0px;" id="elv20dbajhdpb" class="animable">
		</path>
		<path d="M356.93,53a1.37,1.37,0,1,1-1.37-1.3A1.33,1.33,0,0,1,356.93,53Z" style="fill: none; stroke: rgb(120, 120, 120); stroke-linecap: round; stroke-linejoin: round; transform-origin: 355.561px 53.0703px 0px;" id="el9jy0wodvnkf" class="animable">
		</path>
		<path d="M407.86,400.52c.11.32.38.82.66.82s.77-.62.77-1.38-.35-1.38-.77-1.38c-.26,0-.51.44-.62.7L405,399.2a13.25,13.25,0,0,0-1.36-5.19l3.77-2.33c.28.24.81.57,1.07.42.41-.24.4-1,0-1.74s-1.09-1.13-1.5-.89c-.24.14-.24.69-.2,1l-3.93,2.12a13.32,13.32,0,0,0-3.81-3.78l1.34-2.49c.32.07.89.09,1-.16s-.15-1-.81-1.35-1.37-.4-1.58,0c-.13.22.13.66.3.89l-1.5,2.44a13.3,13.3,0,0,0-5.18-1.41l-.13-4.43c.35-.12.9-.42.9-.72,0-.47-.68-.85-1.52-.85s-1.52.38-1.52.85c0,.27.48.55.78.68l-.13,4.47a13.35,13.35,0,0,0-5.19,1.41l-1.48-2.41c.22-.25.52-.73.38-1s-.92-.36-1.58,0-1,1-.81,1.36c.13.22.63.22.92.18l1.36,2.52a13.23,13.23,0,0,0-3.82,3.78l-3.9-2.1c.07-.36.1-1-.17-1.14s-1.08.16-1.5.89-.43,1.51,0,1.74c.24.14.73-.14,1-.33L380,394a13.09,13.09,0,0,0-1.37,5.19l-2.83.08c-.11-.31-.37-.81-.65-.81-.43,0-.78.61-.78,1.38s.35,1.38.78,1.38c.25,0,.5-.44.62-.71l2.86.08a13.19,13.19,0,0,0,1.37,5.2l-3.78,2.33c-.28-.25-.8-.58-1.07-.42s-.4,1,0,1.74,1.09,1.12,1.5.89c.24-.14.24-.7.2-1l3.93-2.12a13.26,13.26,0,0,0,3.82,3.79l-1.34,2.48c-.33-.06-.9-.08-1,.16s.15,1,.81,1.36,1.37.39,1.59,0c.12-.22-.13-.66-.31-.89l1.5-2.44a13,13,0,0,0,5.19,1.41l.13,4.44c-.35.12-.9.41-.9.72,0,.47.68.85,1.52.85s1.51-.38,1.51-.85c0-.28-.48-.56-.77-.69l.13-4.47a13,13,0,0,0,5.18-1.41l1.48,2.41c-.22.25-.52.73-.38,1s.92.36,1.58,0,1-1,.81-1.36-.63-.22-.92-.18L399.05,411a13.35,13.35,0,0,0,3.81-3.79l3.9,2.1c-.07.37-.09,1,.17,1.14s1.08-.16,1.5-.89.43-1.5,0-1.74c-.24-.14-.72.14-1,.33l-3.8-2.34a13.35,13.35,0,0,0,1.36-5.2Z" style="fill: none; stroke: rgb(120, 120, 120); stroke-linecap: round; stroke-linejoin: round; transform-origin: 391.83px 399.91px 0px;" id="elto7sospwtrg" class="animable">
		</path>
		<path d="M392.87,389.8a1.37,1.37,0,1,1-1.37-1.3A1.33,1.33,0,0,1,392.87,389.8Z" style="fill: none; stroke: rgb(120, 120, 120); stroke-linecap: round; stroke-linejoin: round; transform-origin: 391.502px 389.869px 0px;" id="elpeu8nw4ngik" class="animable">
		</path>
		<path d="M384.64,400.29a1.36,1.36,0,1,1-1.36-1.3A1.33,1.33,0,0,1,384.64,400.29Z" style="fill: none; stroke: rgb(120, 120, 120); stroke-linecap: round; stroke-linejoin: round; transform-origin: 383.281px 400.35px 0px;" id="el3qm01gl66gx" class="animable">
		</path>
		<ellipse cx="389.37" cy="396.92" rx="1.36" ry="1.3" style="fill: none; stroke: rgb(120, 120, 120); stroke-linecap: round; stroke-linejoin: round; transform-origin: 389.37px 396.92px 0px;" id="el1j2sbq4keu8" class="animable">
		</ellipse>
		<path d="M387.56,408.2a1.37,1.37,0,1,1-1.37-1.29A1.33,1.33,0,0,1,387.56,408.2Z" style="fill: none; stroke: rgb(120, 120, 120); stroke-linecap: round; stroke-linejoin: round; transform-origin: 386.191px 408.279px 0px;" id="elkafx4e1os1n" class="animable">
		</path>
		<path d="M402.41,402.75a1.37,1.37,0,1,1-1.36-1.29A1.33,1.33,0,0,1,402.41,402.75Z" style="fill: none; stroke: rgb(120, 120, 120); stroke-linecap: round; stroke-linejoin: round; transform-origin: 401.043px 402.83px 0px;" id="elfcjmwpar9ad" class="animable">
		</path>
		<path d="M392.66,404.53a1.36,1.36,0,1,1-1.36-1.3A1.33,1.33,0,0,1,392.66,404.53Z" style="fill: none; stroke: rgb(120, 120, 120); stroke-linecap: round; stroke-linejoin: round; transform-origin: 391.301px 404.59px 0px;" id="ely2whev65yd" class="animable">
		</path>
		<path d="M397.07,399.34a1.36,1.36,0,1,1-1.36-1.3A1.33,1.33,0,0,1,397.07,399.34Z" style="fill: none; stroke: rgb(120, 120, 120); stroke-linecap: round; stroke-linejoin: round; transform-origin: 395.711px 399.398px 0px;" id="elg8vxz687exg" class="animable">
		</path>
		<path d="M400.36,393.3A1.36,1.36,0,1,1,399,392,1.33,1.33,0,0,1,400.36,393.3Z" style="fill: none; stroke: rgb(120, 120, 120); stroke-linecap: round; stroke-linejoin: round; transform-origin: 399px 393.359px 0px;" id="elgnchmjxoh2" class="animable">
		</path>
		<path d="M397.22,408.85a1.36,1.36,0,1,1-1.36-1.3A1.33,1.33,0,0,1,397.22,408.85Z" style="fill: none; stroke: rgb(120, 120, 120); stroke-linecap: round; stroke-linejoin: round; transform-origin: 395.859px 408.91px 0px;" id="elsyakvx1f2xj" class="animable">
		</path>
		<path d="M386.07,392.12a1.37,1.37,0,1,1-1.37-1.3A1.33,1.33,0,0,1,386.07,392.12Z" style="fill: none; stroke: rgb(120, 120, 120); stroke-linecap: round; stroke-linejoin: round; transform-origin: 384.701px 392.189px 0px;" id="eljvam3ooovw9" class="animable">
		</path>
		<path d="M179.5,62.54c.11.32.37.82.65.82.43,0,.78-.62.78-1.38s-.35-1.38-.78-1.38c-.25,0-.5.44-.62.7l-2.86-.08A13.09,13.09,0,0,0,175.3,56l3.78-2.33c.28.24.8.57,1.07.42s.4-1,0-1.74-1.09-1.13-1.5-.89c-.24.13-.24.69-.2,1l-3.93,2.12a13.23,13.23,0,0,0-3.82-3.78L172,48.35c.33.07.9.09,1-.16s-.15-1-.81-1.36-1.37-.39-1.58,0c-.13.22.12.66.3.89l-1.5,2.44a13.35,13.35,0,0,0-5.19-1.41l-.13-4.43c.35-.12.9-.42.9-.72,0-.47-.68-.85-1.52-.85s-1.51.38-1.51.85c0,.27.48.55.77.68l-.13,4.47a13.3,13.3,0,0,0-5.18,1.41L156,47.73c.22-.25.52-.73.38-1s-.92-.36-1.58,0-1,1-.81,1.36.63.22.92.18l1.36,2.52a13.23,13.23,0,0,0-3.82,3.78l-3.9-2.1c.07-.36.09-1-.17-1.14-.41-.23-1.08.16-1.5.89s-.43,1.51,0,1.74c.24.14.72-.14,1-.33l3.8,2.35a13.25,13.25,0,0,0-1.36,5.19l-2.83.08c-.11-.31-.38-.82-.65-.82-.43,0-.78.62-.78,1.39s.35,1.38.78,1.38c.25,0,.5-.44.61-.71l2.87.08a13.35,13.35,0,0,0,1.36,5.2l-3.77,2.32c-.28-.24-.81-.57-1.07-.41-.41.23-.4,1,0,1.74s1.09,1.12,1.5.89c.24-.14.24-.7.2-1l3.93-2.12A13.1,13.1,0,0,0,156.27,73l-1.34,2.49c-.33-.06-.9-.08-1,.16s.15,1,.81,1.36,1.37.39,1.58,0c.13-.22-.13-.66-.3-.89l1.5-2.44a13,13,0,0,0,5.18,1.41l.13,4.44c-.34.12-.9.41-.9.72,0,.46.68.85,1.52.85s1.52-.39,1.52-.85c0-.28-.48-.56-.78-.69l.13-4.47a13,13,0,0,0,5.19-1.41L171,76.11c-.22.25-.52.73-.38,1s.92.36,1.58,0,1-1,.81-1.36-.63-.22-.92-.18L170.68,73a13.1,13.1,0,0,0,3.82-3.78l3.9,2.1c-.07.36-.09,1,.17,1.14.41.24,1.08-.16,1.5-.89s.43-1.5,0-1.74c-.24-.14-.72.14-1,.33l-3.81-2.34a13.19,13.19,0,0,0,1.37-5.2Z" style="fill: none; stroke: rgb(120, 120, 120); stroke-linecap: round; stroke-linejoin: round; transform-origin: 163.494px 61.9258px 0px;" id="elf9nre8mgnvq" class="animable">
		</path>
		<path d="M164.5,51.82a1.36,1.36,0,1,1-1.36-1.3A1.33,1.33,0,0,1,164.5,51.82Z" style="fill: none; stroke: rgb(120, 120, 120); stroke-linecap: round; stroke-linejoin: round; transform-origin: 163.141px 51.8789px 0px;" id="el1tqlqsz7ypw" class="animable">
		</path>
		<path d="M156.28,62.31a1.37,1.37,0,1,1-1.37-1.3A1.33,1.33,0,0,1,156.28,62.31Z" style="fill: none; stroke: rgb(120, 120, 120); stroke-linecap: round; stroke-linejoin: round; transform-origin: 154.912px 62.3809px 0px;" id="eltt3rxp9eivf" class="animable">
		</path>
		<ellipse cx="161.01" cy="58.94" rx="1.36" ry="1.3" style="fill: none; stroke: rgb(120, 120, 120); stroke-linecap: round; stroke-linejoin: round; transform-origin: 161.01px 58.94px 0px;" id="el18kg9w21lg2" class="animable">
		</ellipse>
		<path d="M159.19,70.22a1.36,1.36,0,1,1-1.36-1.3A1.33,1.33,0,0,1,159.19,70.22Z" style="fill: none; stroke: rgb(120, 120, 120); stroke-linecap: round; stroke-linejoin: round; transform-origin: 157.832px 70.2813px 0px;" id="elgukwnjugvb9" class="animable">
		</path>
		<path d="M174,64.77a1.36,1.36,0,1,1-1.36-1.29A1.33,1.33,0,0,1,174,64.77Z" style="fill: none; stroke: rgb(120, 120, 120); stroke-linecap: round; stroke-linejoin: round; transform-origin: 172.641px 64.8398px 0px;" id="el3o5c9fvgaso" class="animable">
		</path>
		<path d="M164.3,66.55a1.36,1.36,0,1,1-1.36-1.3A1.33,1.33,0,0,1,164.3,66.55Z" style="fill: none; stroke: rgb(120, 120, 120); stroke-linecap: round; stroke-linejoin: round; transform-origin: 162.941px 66.6094px 0px;" id="elmzo8l3lbusm" class="animable">
		</path>
		<path d="M168.71,61.36a1.36,1.36,0,1,1-1.36-1.3A1.34,1.34,0,0,1,168.71,61.36Z" style="fill: none; stroke: rgb(120, 120, 120); stroke-linecap: round; stroke-linejoin: round; transform-origin: 167.352px 61.4199px 0px;" id="el190qkf3lf0a" class="animable">
		</path>
		<path d="M172,55.32a1.36,1.36,0,1,1-1.36-1.3A1.33,1.33,0,0,1,172,55.32Z" style="fill: none; stroke: rgb(120, 120, 120); stroke-linecap: round; stroke-linejoin: round; transform-origin: 170.641px 55.3789px 0px;" id="eloospz4yqzgm" class="animable">
		</path>
		<path d="M168.86,70.87a1.37,1.37,0,1,1-1.37-1.3A1.33,1.33,0,0,1,168.86,70.87Z" style="fill: none; stroke: rgb(120, 120, 120); stroke-linecap: round; stroke-linejoin: round; transform-origin: 167.49px 70.9395px 0px;" id="elqjupcp8628" class="animable">
		</path>
		<path d="M157.7,54.14a1.36,1.36,0,1,1-1.36-1.3A1.33,1.33,0,0,1,157.7,54.14Z" style="fill: none; stroke: rgb(120, 120, 120); stroke-linecap: round; stroke-linejoin: round; transform-origin: 156.34px 54.1992px 0px;" id="el1lsje32ktsy" class="animable">
		</path>
	</g>
	<g id="freepik--Vaccine--inject-36" style="transform-origin: 405.625px 204.965px 0px;" class="animable animator-hidden">
		<rect x="367.15" y="96.93" width="76.95" height="56.23" style="fill: rgb(153, 153, 153); stroke: rgb(38, 50, 56); stroke-linecap: round; stroke-linejoin: round; transform-origin: 405.625px 125.045px 0px;" id="ell27egglxefr" class="animable">
		</rect>
		<path d="M365.38,150.2h80.49a15,15,0,0,1,15,15V302a11,11,0,0,1-11,11H361.38a11,11,0,0,1-11-11V165.2A15,15,0,0,1,365.38,150.2Z" style="fill: rgb(153, 153, 153); stroke: rgb(38, 50, 56); stroke-linecap: round; stroke-linejoin: round; transform-origin: 405.625px 231.6px 0px;" id="elv4s2n56wut" class="animable">
		</path>
		<rect x="360.24" y="96.93" width="90.76" height="36.5" style="fill: rgb(219, 219, 219); stroke: rgb(38, 50, 56); stroke-linecap: round; stroke-linejoin: round; transform-origin: 405.62px 115.18px 0px;" id="el65q8mrsgpv" class="animable">
		</rect>
		<rect x="363.35" y="96.93" width="12.94" height="36.5" style="fill: rgb(38, 50, 56); stroke: rgb(38, 50, 56); stroke-linecap: round; stroke-linejoin: round; transform-origin: 369.82px 115.18px 0px;" id="elge92fde0y8o" class="animable">
		</rect>
		<rect x="379.81" y="96.93" width="3.06" height="36.5" style="fill: rgb(38, 50, 56); stroke: rgb(38, 50, 56); stroke-linecap: round; stroke-linejoin: round; transform-origin: 381.34px 115.18px 0px;" id="eln77yqo4rde" class="animable">
		</rect>
		<rect x="425.67" y="97.74" width="10.11" height="34.88" style="fill: rgb(255, 255, 255); transform-origin: 430.725px 115.18px 0px;" id="elqidnwt19yuq" class="animable">
		</rect>
		<rect x="355.31" y="96.93" width="100.62" height="19.73" style="fill: rgb(64, 123, 255); stroke: rgb(38, 50, 56); stroke-linecap: round; stroke-linejoin: round; transform-origin: 405.62px 106.795px 0px;" id="elpotezutpfb" class="animable">
		</rect>
		<path d="M460.82,164H350.43c0,.33-.05.65-.05,1V302.12H460.87V165C460.87,164.66,460.84,164.34,460.82,164Z" style="fill: rgb(255, 255, 255); stroke: rgb(38, 50, 56); stroke-linecap: round; stroke-linejoin: round; transform-origin: 405.625px 233.061px 0px;" id="eloyto5he3jb" class="animable">
		</path>
		<path d="M372.91,209v2h-2.39v-2.16c0-2-.81-3.27-2.65-3.27s-2.66,1.23-2.66,3.27v12c0,2,.84,3.27,2.66,3.27s2.65-1.23,2.65-3.27v-2.94h2.39v2.82c0,3.42-1.61,5.69-5.11,5.69s-5.08-2.27-5.08-5.69V209c0-3.42,1.62-5.69,5.08-5.69S372.91,205.54,372.91,209Z" style="fill: rgb(38, 50, 56); transform-origin: 367.814px 214.859px 0px;" id="elrzokepju93o" class="animable">
		</path>
		<path d="M375,209c0-3.46,1.71-5.69,5.17-5.69s5.21,2.23,5.21,5.69v11.72c0,3.42-1.71,5.69-5.21,5.69S375,224.1,375,220.68Zm2.49,11.84c0,2.08.87,3.27,2.68,3.27s2.69-1.19,2.69-3.27v-12c0-2-.84-3.27-2.69-3.27s-2.68,1.23-2.68,3.27Z" style="fill: rgb(38, 50, 56); transform-origin: 380.189px 214.859px 0px;" id="el0je4scazvzre" class="animable">
		</path>
		<path d="M389.67,203.5l3.69,19.7L397,203.5h2.33l-4.24,22.64h-3.72l-4.27-22.64Z" style="fill: rgb(38, 50, 56); transform-origin: 393.215px 214.82px 0px;" id="elzxdoqnnpu99" class="animable">
		</path>
		<path d="M403.81,203.5v22.64h-2.52V203.5Z" style="fill: rgb(38, 50, 56); transform-origin: 402.549px 214.82px 0px;" id="elqrryifbkt7" class="animable">
		</path>
		<path d="M411.71,203.5c3.52,0,5.14,2.13,5.14,5.63v11.42c0,3.46-1.62,5.59-5.14,5.59H406.4V203.5Zm0,20.35c1.82,0,2.69-1.14,2.69-3.21V209c0-2.07-.87-3.21-2.72-3.21h-2.72v18.06Z" style="fill: rgb(38, 50, 56); transform-origin: 411.625px 214.82px 0px;" id="elwt1kxw82tya" class="animable">
		</path>
		<path d="M419.12,213.69h6.18V216h-6.18Z" style="fill: rgb(38, 50, 56); transform-origin: 422.211px 214.846px 0px;" id="elpfljw0kdfp" class="animable">
		</path>
		<path d="M432.41,207.61a6.92,6.92,0,0,1-3.13,1v-2.07c2.45-.1,3.3-1.43,3.88-3h1.74v22.64h-2.49Z" style="fill: rgb(38, 50, 56); transform-origin: 432.09px 214.859px 0px;" id="elwyyx82ji8g8" class="animable">
		</path>
		<path d="M448.88,209v11.55c0,3.59-1.62,5.86-5.24,5.86-3.46,0-5.11-2.23-5.11-5.69v-.43h2.36v.59c0,2,.87,3.23,2.69,3.23s2.78-1.23,2.78-3.62v-5.08a3.63,3.63,0,0,1-3.66,2.39c-2.91,0-4.2-2.07-4.2-5.33V209c0-3.46,1.68-5.69,5.17-5.69S448.88,205.5,448.88,209Zm-7.89-.12v3.39c0,2,.87,3.27,2.68,3.27s2.69-1.23,2.69-3.27v-3.39c0-2.08-.84-3.27-2.69-3.27S441,206.76,441,208.84Z" style="fill: rgb(38, 50, 56); transform-origin: 443.689px 214.859px 0px;" id="elm0dkktqdqm" class="animable">
		</path>
		<path d="M368.56,234.43l3.69,19.7,3.66-19.7h2.33L374,257.08h-3.72L366,234.43Z" style="fill: rgb(38, 50, 56); transform-origin: 372.119px 245.754px 0px;" id="elpcjug08qxsr" class="animable">
		</path>
		<path d="M381.93,252.51l-.88,4.57h-2.33l4.34-22.65h3.65l4.34,22.65h-2.52l-.88-4.57Zm.32-2.16h5.05l-2.56-13.07Z" style="fill: rgb(38, 50, 56); transform-origin: 384.885px 245.754px 0px;" id="elbk8fszorj2s" class="animable">
		</path>
		<path d="M403,239.9v2h-2.4v-2.17c0-2-.8-3.27-2.65-3.27s-2.65,1.23-2.65,3.27v12c0,2,.84,3.27,2.65,3.27s2.65-1.23,2.65-3.27v-3H403v2.82c0,3.43-1.62,5.69-5.11,5.69s-5.08-2.26-5.08-5.69V239.9c0-3.43,1.62-5.7,5.08-5.7S403,236.47,403,239.9Z" style="fill: rgb(38, 50, 56); transform-origin: 397.904px 245.719px 0px;" id="eldwsk7ugv0xk" class="animable">
		</path>
		<path d="M415.28,239.9v2h-2.39v-2.17c0-2-.81-3.27-2.65-3.27s-2.66,1.23-2.66,3.27v12c0,2,.84,3.27,2.66,3.27s2.65-1.23,2.65-3.27v-3h2.39v2.82c0,3.43-1.62,5.69-5.11,5.69s-5.08-2.26-5.08-5.69V239.9c0-3.43,1.62-5.7,5.08-5.7S415.28,236.47,415.28,239.9Z" style="fill: rgb(38, 50, 56); transform-origin: 410.186px 245.719px 0px;" id="el65kk4ozr7vu" class="animable">
		</path>
		<path d="M420.1,234.43v22.65h-2.52V234.43Z" style="fill: rgb(38, 50, 56); transform-origin: 418.84px 245.754px 0px;" id="elrb0xuleplp" class="animable">
		</path>
		<path d="M424.92,257.08h-2.26V234.43h3.2l5.24,16.37V234.43h2.23v22.65h-2.61l-5.8-18.31Z" style="fill: rgb(38, 50, 56); transform-origin: 427.994px 245.754px 0px;" id="elta5u0a78l1l" class="animable">
		</path>
		<path d="M444,244.46v2.26h-5.53v8.06h6.79v2.3h-9.31V234.43h9.31v2.3h-6.79v7.73Z" style="fill: rgb(38, 50, 56); transform-origin: 440.605px 245.754px 0px;" id="elrggmumnhjun" class="animable">
		</path>
	</g>
	<g id="freepik--character-1--inject-36" style="transform-origin: 112.994px 311.41px 0px;" class="animable">
		<g id="eldamiroyy68s">
			<rect x="66.72" y="330.12" width="1.96" height="37.2" style="fill: rgb(255, 255, 255); stroke: rgb(38, 50, 56); stroke-linecap: round; stroke-linejoin: round; transform-origin: 67.7px 348.72px 0px; transform: rotate(90deg);" class="animable">
			</rect>
		</g>
		<rect x="49.75" y="321.64" width="1.96" height="37.2" style="fill: rgb(255, 255, 255); stroke: rgb(38, 50, 56); stroke-linecap: round; stroke-linejoin: round; transform-origin: 50.73px 340.24px 0px;" id="elwol8x1tffv8" class="animable">
		</rect>
		<circle cx="50.73" cy="348.72" r="2.61" style="fill: rgb(38, 50, 56); stroke: rgb(38, 50, 56); stroke-linecap: round; stroke-linejoin: round; transform-origin: 50.73px 348.72px 0px;" id="elsda7gerz1fk" class="animable">
		</circle>
		<path d="M59.21,350.68h5.22a0,0,0,0,1,0,0V452.81a2.61,2.61,0,0,1-2.61,2.61h0a2.61,2.61,0,0,1-2.61-2.61V350.68A0,0,0,0,1,59.21,350.68Z" style="fill: rgb(255, 255, 255); stroke: rgb(38, 50, 56); stroke-linecap: round; stroke-linejoin: round; transform-origin: 61.8203px 403.051px 0px;" id="el6ffoebpcpjw" class="animable">
		</path>
		<path d="M59.21,446v6.85a2.61,2.61,0,0,0,5.22,0V446Z" style="fill: rgb(38, 50, 56); stroke: rgb(38, 50, 56); stroke-linecap: round; stroke-linejoin: round; transform-origin: 61.8203px 450.73px 0px;" id="elohxjasyycjo" class="animable">
		</path>
		<path d="M157.43,350.68h5.22a0,0,0,0,1,0,0V452.81a2.61,2.61,0,0,1-2.61,2.61h0a2.61,2.61,0,0,1-2.61-2.61V350.68A0,0,0,0,1,157.43,350.68Z" style="fill: rgb(255, 255, 255); stroke: rgb(38, 50, 56); stroke-linecap: round; stroke-linejoin: round; transform-origin: 160.039px 403.051px 0px;" id="elz7wee64oo9" class="animable">
		</path>
		<path d="M157.43,446v6.85a2.61,2.61,0,0,0,5.22,0V446Z" style="fill: rgb(38, 50, 56); stroke: rgb(38, 50, 56); stroke-linecap: round; stroke-linejoin: round; transform-origin: 160.039px 450.73px 0px;" id="eli6a1zbuljp" class="animable">
		</path>
		<path d="M61.5,353.61h98.87a0,0,0,0,1,0,0v65.24a16.67,16.67,0,0,1-16.67,16.67H78.16A16.67,16.67,0,0,1,61.5,418.85V353.61A0,0,0,0,1,61.5,353.61Z" style="fill: rgb(64, 123, 255); stroke: rgb(38, 50, 56); stroke-linecap: round; stroke-linejoin: round; transform-origin: 110.936px 394.564px 0px;" id="el4cjgmeh30ed" class="animable">
		</path>
		<path d="M72.27,308.26,47.79,329.79H35.16a2.05,2.05,0,0,1-2-2.05v-6.12a8.11,8.11,0,0,1,4.73-7.37l23.25-10.64a13.59,13.59,0,0,1,5.65-1.23h0a5.54,5.54,0,0,1,5.53,5.53Z" style="fill: rgb(64, 123, 255); stroke: rgb(38, 50, 56); stroke-linecap: round; stroke-linejoin: round; transform-origin: 52.7402px 316.084px 0px;" id="ellimy3wnaeq" class="animable">
		</path>
		<g id="elga6xk1qllx8">
			<rect x="157.27" y="330.12" width="1.96" height="37.2" style="fill: rgb(255, 255, 255); stroke: rgb(38, 50, 56); stroke-linecap: round; stroke-linejoin: round; transform-origin: 158.25px 348.72px 0px; transform: rotate(90deg);" class="animable">
			</rect>
		</g>
		<g id="elulhmf3biumr">
			<rect x="174.24" y="321.64" width="1.96" height="37.2" style="fill: rgb(255, 255, 255); stroke: rgb(38, 50, 56); stroke-linecap: round; stroke-linejoin: round; transform-origin: 175.22px 340.24px 0px; transform: rotate(180deg);" class="animable">
			</rect>
		</g>
		<path d="M172.6,348.72a2.61,2.61,0,1,1,2.61,2.61A2.61,2.61,0,0,1,172.6,348.72Z" style="fill: rgb(38, 50, 56); stroke: rgb(38, 50, 56); stroke-linecap: round; stroke-linejoin: round; transform-origin: 175.211px 348.719px 0px;" id="elukebth4yi4" class="animable">
		</path>
		<path d="M153.68,308.26l23.47,20.65a3.52,3.52,0,0,0,2.34.88h9.8a3.54,3.54,0,0,0,3.54-3.54v-4.63a8.09,8.09,0,0,0-4.73-7.37l-23.25-10.64a13.59,13.59,0,0,0-5.65-1.23h0a5.53,5.53,0,0,0-5.52,5.53Z" style="fill: rgb(64, 123, 255); stroke: rgb(38, 50, 56); stroke-linecap: round; stroke-linejoin: round; transform-origin: 173.254px 316.084px 0px;" id="el9bj7zdr37y9" class="animable">
		</path>
		<path d="M72.92,318.7,58,340.61a8.13,8.13,0,0,0-.84,7.53h0a8.13,8.13,0,0,0,7.56,5.15h91.71a11,11,0,0,0,9-4.71h0a11.05,11.05,0,0,0,1.07-10.76l-11.75-18.14Z" style="fill: rgb(64, 123, 255); stroke: rgb(38, 50, 56); stroke-linecap: round; stroke-linejoin: round; transform-origin: 112.014px 335.994px 0px;" id="el7724gyz8rl3" class="animable">
		</path>
		<path d="M80.76,193.4H146a10.5,10.5,0,0,1,10.5,10.5V333.06a0,0,0,0,1,0,0H70.26a0,0,0,0,1,0,0V203.9A10.5,10.5,0,0,1,80.76,193.4Z" style="fill: rgb(64, 123, 255); stroke: rgb(38, 50, 56); stroke-linecap: round; stroke-linejoin: round; transform-origin: 113.381px 263.229px 0px;" id="el1r5vtt1p1hk" class="animable">
		</path>
		<path d="M63.93,260.81l-3.44,17.72s-22,23.27-23.27,26.18-3.17,20.62-3.17,22,4.76,5,4.76,5L43,333.27l2.64-1.59s0-5.55.53-6.88a31.59,31.59,0,0,1,2.65-4.23s-.8,6.35.26,6.35,2.12-6.08,2.12-10.05S46.74,306,46.74,306s20.89-5.55,23.54-9.52,10.31-29.09,10.31-29.09Z" style="fill: rgb(255, 255, 255); stroke: rgb(38, 50, 56); stroke-linecap: round; stroke-linejoin: round; transform-origin: 57.3203px 297.039px 0px;" id="elu5nvbfjmv2r" class="animable">
		</path>
		<path d="M60.49,278.53s-1.05,5.55,1.59,7.4,4.76-.79,4.76-.79" style="fill: none; stroke: rgb(38, 50, 56); stroke-linecap: round; stroke-linejoin: round; transform-origin: 63.5605px 282.561px 0px;" id="elaggopfuw1hq" class="animable">
		</path>
		<path d="M43.83,319S42,328.24,42.77,329s1.59,3.7,1.59,3.7" style="fill: none; stroke: rgb(38, 50, 56); stroke-linecap: round; stroke-linejoin: round; transform-origin: 43.4707px 325.85px 0px;" id="ela6xif7u3zsu" class="animable">
		</path>
		<path d="M40.66,318.19s-1.32,8.73-1.32,10.32,2.38,4.23,2.38,4.23" style="fill: none; stroke: rgb(38, 50, 56); stroke-linecap: round; stroke-linejoin: round; transform-origin: 40.5293px 325.465px 0px;" id="ell86p5bua0ko" class="animable">
		</path>
		<path d="M37,318.72s-.8,6.61-.53,8.2,2.38,4.76,2.38,4.76" style="fill: none; stroke: rgb(38, 50, 56); stroke-linecap: round; stroke-linejoin: round; transform-origin: 37.6328px 325.199px 0px;" id="elnnh5zza2o1" class="animable">
		</path>
		<path d="M148,229.6s6.61,18.51,10.31,27.77S174.21,297,173.94,300s-13.49,2.91-16.39.53S138,265.3,138,265.3Z" style="fill: rgb(255, 255, 255); stroke: rgb(38, 50, 56); stroke-linecap: round; stroke-linejoin: round; transform-origin: 155.973px 265.943px 0px;" id="elm6dkapq0yl" class="animable">
		</path>
		<path d="M93.81,223l-19.3,6.61L56.79,262.39l24.07,10.05,2.9-4.23,1.86,16.13s-17.19,29.09-19.57,39.41,4.23,22.48,12.43,25.91,59.5.53,66.11-1.05,13-12.7,12.43-21.16-8.47-27.77-9.26-29.62-9.52-16.39-9.52-16.39l2.12-14.81,4.76-39.41-21.42-6.61-23.28.27Z" style="fill: rgb(38, 50, 56); stroke: rgb(38, 50, 56); stroke-linecap: round; stroke-linejoin: round; transform-origin: 106.922px 285.938px 0px;" id="elvm88cc45wxe" class="animable">
		</path>
		<path d="M138.24,281.44l2.12-14.81,4.76-39.41-21.42-6.61-23.28.27L93.81,223l-19.3,6.61L56.79,262.39l24.07,10.05,2.9-4.23,1.86,16.13s-9.46,16-15.32,28.49h32.64c18,0,38.83-1.31,48,.32,1,.18,1.9.35,2.78.53-2.47-7.49-5.46-14.75-5.93-15.85C147,296,138.24,281.44,138.24,281.44Z" style="fill: rgb(255, 255, 255); stroke: rgb(38, 50, 56); stroke-linecap: round; stroke-linejoin: round; transform-origin: 105.254px 267.145px 0px;" id="eltqe0753wnhk" class="animable">
		</path>
		<line x1="127.36" y1="267.82" x2="131.75" y2="265.85" style="fill: none; stroke: rgb(38, 50, 56); stroke-linecap: round; stroke-linejoin: round; transform-origin: 129.555px 266.835px 0px;" id="elik6doxij77n" class="animable">
		</line>
		<line x1="103" y1="278.71" x2="124.69" y2="269.01" style="fill: none; stroke: rgb(38, 50, 56); stroke-linecap: round; stroke-linejoin: round; transform-origin: 113.845px 273.86px 0px;" id="els3kxrwkjhqs" class="animable">
		</line>
		<line x1="95.89" y1="279.38" x2="113.14" y2="272.28" style="fill: none; stroke: rgb(38, 50, 56); stroke-linecap: round; stroke-linejoin: round; transform-origin: 104.515px 275.83px 0px;" id="el96u4ewm16v" class="animable">
		</line>
		<line x1="78.07" y1="244.77" x2="77.15" y2="240.97" style="fill: rgb(255, 255, 255); stroke: rgb(38, 50, 56); stroke-linecap: round; stroke-linejoin: round; transform-origin: 77.61px 242.87px 0px;" id="elktrbb5iuqp" class="animable">
		</line>
		<line x1="83.76" y1="268.21" x2="78.85" y2="247.96" style="fill: rgb(255, 255, 255); stroke: rgb(38, 50, 56); stroke-linecap: round; stroke-linejoin: round; transform-origin: 81.305px 258.085px 0px;" id="elfinzo80yyea" class="animable">
		</line>
		<polygon points="141.41 254.99 150.14 228.02 143.27 226.43 141.41 254.99" style="fill: rgb(255, 255, 255); stroke: rgb(38, 50, 56); stroke-linecap: round; stroke-linejoin: round; transform-origin: 145.775px 240.71px 0px;" id="elluv1cylb2p9" class="animable">
		</polygon>
		<path d="M93.48,440.08s-2.29,6.2-6.2,9.79-8.16,9.79-6.2,12.73,11.09,2,14.68-.33,3.92-5.87,7.5-7.5,6.2-5.22,4.9-10.77S93.48,440.08,93.48,440.08Z" style="fill: rgb(255, 255, 255); stroke: rgb(38, 50, 56); stroke-linecap: round; stroke-linejoin: round; transform-origin: 94.543px 452.148px 0px;" id="eldzab3ss42pv" class="animable">
		</path>
		<path d="M108.49,446.49c-2.2,2.38-6.49,6.62-8.49,7.62-2.61,1.31-3.26,8.81-10.11,8.81A25,25,0,0,1,80.6,461a3.09,3.09,0,0,0,.48,1.57c2,2.94,11.09,2,14.68-.33s3.92-5.87,7.5-7.5A8.51,8.51,0,0,0,108.49,446.49Z" style="fill: rgb(255, 255, 255); stroke: rgb(38, 50, 56); stroke-linecap: round; stroke-linejoin: round; transform-origin: 94.5488px 455.449px 0px;" id="elxqowckq561j" class="animable">
		</path>
		<path d="M82.71,338.28s-.65,33.61,3.59,50.57,6.52,46,6.52,46l-1,3.92.66,4.57a49.43,49.43,0,0,0,7.18,3.91c4.89,2.29,10.11-2.28,10.11-2.28s-1.63-15-2-16,3.59-62,3.59-67.87,1.31-19.91.66-27.41S101,313.48,89.23,312.5,69,319.35,69.33,330.45" style="fill: rgb(38, 50, 56); stroke: rgb(38, 50, 56); stroke-linecap: round; stroke-linejoin: round; transform-origin: 90.7617px 380.154px 0px;" id="el8e28fvk457x" class="animable">
		</path>
		<path d="M132.48,440.08s2.28,6.2,6.2,9.79,8.16,9.79,6.2,12.73-11.1,2-14.69-.33-3.91-5.87-7.5-7.5-6.2-5.22-4.9-10.77S132.48,440.08,132.48,440.08Z" style="fill: rgb(255, 255, 255); stroke: rgb(38, 50, 56); stroke-linecap: round; stroke-linejoin: round; transform-origin: 131.412px 452.148px 0px;" id="elau56tfza3mk" class="animable">
		</path>
		<path d="M117.47,446.49c2.19,2.38,6.48,6.62,8.48,7.62,2.61,1.31,3.27,8.81,10.12,8.81a24.93,24.93,0,0,0,9.28-1.89,3.08,3.08,0,0,1-.47,1.57c-2,2.94-11.1,2-14.69-.33s-3.91-5.87-7.5-7.5A8.48,8.48,0,0,1,117.47,446.49Z" style="fill: rgb(255, 255, 255); stroke: rgb(38, 50, 56); stroke-linecap: round; stroke-linejoin: round; transform-origin: 131.404px 455.465px 0px;" id="elm6dmf0gl16" class="animable">
		</path>
		<path d="M143.25,338.28s.65,33.61-3.59,50.57-6.53,46-6.53,46l1,3.92-.65,4.57a50.19,50.19,0,0,1-7.18,3.91c-4.9,2.29-10.12-2.28-10.12-2.28s1.63-15,2-16-3.59-62-3.59-67.87-1.3-19.91-.65-27.41S125,313.48,136.72,312.5s20.23,6.85,19.9,17.95" style="fill: rgb(38, 50, 56); stroke: rgb(38, 50, 56); stroke-linecap: round; stroke-linejoin: round; transform-origin: 135.193px 380.154px 0px;" id="elqdr20ay62m" class="animable">
		</path>
		<path d="M159.4,288.31,107.56,305.5s-11.63,5.82-13.22,6.35-5.82,6.61-6.34,7.67,1.85,1.32,2.9,1.05,5.56-1.85,5.56-1.85-2.65,1.32,0,1.32,6.61-2.64,6.61-2.64,7.67-2.12,8.46-3.17,3.7-4,3.7-4,33.32-2.12,38.88-3.17,16.13-4,18-5.56,2.38-3.43.26-7.4" style="fill: rgb(255, 255, 255); stroke: rgb(38, 50, 56); stroke-linecap: round; stroke-linejoin: round; transform-origin: 130.838px 304.488px 0px;" id="el4ue49k9rq0u" class="animable">
		</path>
		<polyline points="96.46 318.72 103.3 314.37 105.92 312.89" style="fill: none; stroke: rgb(38, 50, 56); stroke-linecap: round; stroke-linejoin: round; transform-origin: 101.19px 315.805px 0px;" id="el1spddnb0n12" class="animable">
		</polyline>
		<path d="M89.05,320.26s.49-2,1.31-2,6.39-4.42,6.39-4.42l6.22-2.13" style="fill: none; stroke: rgb(38, 50, 56); stroke-linecap: round; stroke-linejoin: round; transform-origin: 96.0098px 315.986px 0px;" id="el5qdzv9kkw1v" class="animable">
		</path>
		<path d="M101.17,310.44s-8,2.94-8.51,3.6-3.28,3.44-3.28,3.44" style="fill: none; stroke: rgb(38, 50, 56); stroke-linecap: round; stroke-linejoin: round; transform-origin: 95.2754px 313.961px 0px;" id="el4h0hirwx0l8" class="animable">
		</path>
		<path d="M103.86,199.19s0,12.43-.53,20.63,3.71,23.8,8.2,24.86,11.11-18.78,11.11-20.63,2.91-14,2.91-14Z" style="fill: rgb(255, 255, 255); stroke: rgb(38, 50, 56); stroke-linecap: round; stroke-linejoin: round; transform-origin: 114.418px 221.955px 0px;" id="elslemxd6c9i" class="animable">
		</path>
		<path d="M122.69,223.47c.27-2.24,1.72-8.57,2.44-11.68l-17.75-3.31a58.08,58.08,0,0,0,8,10A23.63,23.63,0,0,0,122.69,223.47Z" style="fill: rgb(38, 50, 56); stroke: rgb(38, 50, 56); stroke-linecap: round; stroke-linejoin: round; transform-origin: 116.254px 215.975px 0px;" id="elcx44bu4tju6" class="animable">
		</path>
		<path d="M103.07,160.32s-13,9.78-14.55,20.1-1.58,45.75-.26,54.74,10.31,11.9,13.22,11.9,6.61-4.76,6.61-4.76S102,238.07,102,231.19s1.85-32,1.85-32L116,175.39l19.57,7.67s-2.12,18.51-5,23.8a23,23,0,0,1-8.46,8.2s.79,11.63.53,16.92a12.12,12.12,0,0,1-3.7,8.2s5.55,10,11.37,5,6.08-16.93,6.08-20.63.26-41.78.26-41.78a9.43,9.43,0,0,0,3.44-7.94c-.26-5.29-9.25-12.43-20.62-15.34S103.07,160.32,103.07,160.32Z" style="fill: rgb(38, 50, 56); stroke: rgb(38, 50, 56); stroke-linecap: round; stroke-linejoin: round; transform-origin: 113.713px 202.719px 0px;" id="elmoxyl2n5z7" class="animable">
		</path>
		<path d="M115,171.69l-10,21.42s-2.91-6.08-5.29-3.7S97,198.4,99.9,201l2.9,2.65,1.59-1.06s3.44,9,10.31,13,10.58,4,13.76,1.06,7.67-11.38,8.19-16.67.8-16.66.53-18.51S115,171.69,115,171.69Z" style="fill: rgb(255, 255, 255); stroke: rgb(38, 50, 56); stroke-linecap: round; stroke-linejoin: round; transform-origin: 117.555px 195.215px 0px;" id="elzga3948h3s" class="animable">
		</path>
		<path d="M137.09,193.17A28.18,28.18,0,0,1,125,195.75c-8.23,0-17-2.8-19.61-3.69l-.49,1.05,2.64,1.32s1.59,3.44,2.38,5,0,9,0,9l-5.55-5.82s3.44,9,10.31,13,10.58,4,13.76,1.06,7.67-11.38,8.19-16.67C136.83,198.2,137,195.74,137.09,193.17Z" style="fill: rgb(64, 123, 255); stroke: rgb(38, 50, 56); stroke-linecap: round; stroke-linejoin: round; transform-origin: 120.73px 205.408px 0px;" id="el7zcimknv5gf" class="animable">
		</path>
		<path d="M123.87,191.91c0,1-.42,1.76-.94,1.76s-.93-.79-.93-1.76.42-1.75.93-1.75S123.87,190.94,123.87,191.91Z" style="fill: rgb(38, 50, 56); transform-origin: 122.936px 191.916px 0px;" id="eluqxs9qlwupr" class="animable">
		</path>
		<ellipse cx="132.77" cy="191.33" rx="0.94" ry="1.76" style="fill: rgb(38, 50, 56); transform-origin: 132.77px 191.33px 0px;" id="elm7zrxdt2mp" class="animable">
		</ellipse>
		<path d="M117.78,187.11s4.68-2.34,8.2,0" style="fill: none; stroke: rgb(38, 50, 56); stroke-linecap: round; stroke-linejoin: round; transform-origin: 121.881px 186.59px 0px;" id="elwhb898kl6l8" class="animable">
		</path>
		<path d="M131.59,194.84l-1.17-6.56s.94-4.21,4.69-1.87" style="fill: none; stroke: rgb(38, 50, 56); stroke-linecap: round; stroke-linejoin: round; transform-origin: 132.766px 190.271px 0px;" id="el2kvcp5zkbxw" class="animable">
		</path>
	</g>
	<g id="freepik--character-2--inject-36" style="transform-origin: 225.021px 299.465px 0px;" class="animable">
		<path d="M207.73,251.63l-9.89-5.55s-11.57-8.68-13.26-8.68H173c-.73,0-1.21,2.66.24,5.55s.24,7.71,3.13,9.64,16.88,3.14,16.88,3.14l12.3,6.27Z" style="fill: rgb(222, 222, 222); stroke: rgb(38, 50, 56); stroke-linecap: round; stroke-linejoin: round; transform-origin: 190.016px 249.699px 0px;" id="el226sfckv8nb" class="animable">
		</path>
		<path d="M184.58,237.4H173c-.73,0-1.21,2.66.24,5.55s.24,7.71,3.13,9.64,16.88,3.14,16.88,3.14l1.51.77a8.84,8.84,0,0,0,3.07-3.67,20.77,20.77,0,0,0,.5-6.47l-.5-.28S186.27,237.4,184.58,237.4Z" style="fill: rgb(64, 123, 255); stroke: rgb(38, 50, 56); stroke-linecap: round; stroke-linejoin: round; transform-origin: 185.348px 246.949px 0px;" id="el8xl9gz0qqo4" class="animable">
		</path>
		<g id="el9q1e2cv488a">
			<rect x="165.98" y="237.16" width="2.6" height="11.44" style="fill: rgb(255, 255, 255); stroke: rgb(38, 50, 56); stroke-linecap: round; stroke-linejoin: round; transform-origin: 167.28px 242.88px 0px; transform: rotate(63.64deg);" class="animable">
			</rect>
		</g>
		<polygon points="161.58 244.25 160.07 246.28 162.74 246.58 161.58 244.25" style="fill: rgb(255, 255, 255); stroke: rgb(38, 50, 56); stroke-linecap: round; stroke-linejoin: round; transform-origin: 161.405px 245.415px 0px;" id="el1vdcqzlhlj" class="animable">
		</polygon>
		<line x1="160.07" y1="246.28" x2="154.05" y2="249.26" style="fill: none; stroke: rgb(38, 50, 56); stroke-linecap: round; stroke-linejoin: round; transform-origin: 157.06px 247.77px 0px;" id="elt0q2p3qd3d" class="animable">
		</line>
		<path d="M172.5,235.66s-4.05.63-3.83,2.06.28,3.37,2,3.35,2.49.34,2.84-2.15S173.56,236.23,172.5,235.66Z" style="fill: rgb(64, 123, 255); stroke: rgb(38, 50, 56); stroke-linecap: round; stroke-linejoin: round; transform-origin: 171.156px 238.369px 0px;" id="eld5dojwgdrem" class="animable">
		</path>
		<path d="M172,242.05s-2.55,0-2.55,1.68.72,2.41,1.93,2.41,6.51,0,6.51-1.93-1-2.41-1.93-2.41S172,242.05,172,242.05Z" style="fill: rgb(64, 123, 255); stroke: rgb(38, 50, 56); stroke-linecap: round; stroke-linejoin: round; transform-origin: 173.67px 243.971px 0px;" id="eljf1hkcwqww" class="animable">
		</path>
		<path d="M173.36,246.18s-2.55,0-2.55,1.68.72,2.41,1.93,2.41,6.51,0,6.51-1.93-1-2.41-1.93-2.41S173.36,246.18,173.36,246.18Z" style="fill: rgb(64, 123, 255); stroke: rgb(38, 50, 56); stroke-linecap: round; stroke-linejoin: round; transform-origin: 175.029px 248.1px 0px;" id="el6h931iue28" class="animable">
		</path>
		<path d="M175.7,249.75s-2.25,0-2.25,1.47.64,2.12,1.7,2.12,5.73,0,5.73-1.69-.85-2.12-1.7-2.12S175.7,249.75,175.7,249.75Z" style="fill: rgb(64, 123, 255); stroke: rgb(38, 50, 56); stroke-linecap: round; stroke-linejoin: round; transform-origin: 177.164px 251.436px 0px;" id="eldmpy5upm00n" class="animable">
		</path>
		<path d="M195.43,245.12,186,234.51s-7.72,1.45-9.89,1.93-3.62,1.45-2.41,3.13,7.47.49,7.47.49,3.14,8.68,7.72,8.68" style="fill: rgb(64, 123, 255); stroke: rgb(38, 50, 56); stroke-linecap: round; stroke-linejoin: round; transform-origin: 184.346px 241.625px 0px;" id="elzzzyztx5sra" class="animable">
		</path>
		<path d="M213.75,224.87l8,28.69L207,249.94l-4.82,13.5s40.26,16.16,42.92,15.92S223.64,223.18,223.4,221,214.48,218.36,213.75,224.87Z" style="fill: rgb(255, 255, 255); stroke: rgb(38, 50, 56); stroke-linecap: round; stroke-linejoin: round; transform-origin: 223.742px 249.455px 0px;" id="elb0erpmxepg7" class="animable">
		</path>
		<path d="M220.83,435.27s-6.76,5.47-10.93,7.39-13.18,5.79-13.51,8.36,4.83,2.9,13.51,2.9,18.94,1.18,21.51.54,4.85-1.19,4.85-3.12S234,439.45,234,439.45Z" style="fill: rgb(255, 255, 255); stroke: rgb(38, 50, 56); stroke-linecap: round; stroke-linejoin: round; transform-origin: 216.318px 444.961px 0px;" id="elbizl8b7uv1w" class="animable">
		</path>
		<path d="M211,451.52c-9.18-.09-12.87-.67-14.36-1.14a1.88,1.88,0,0,0-.26.64c-.32,2.57,4.83,2.9,13.51,2.9s18.94,1.18,21.51.54,4.85-1.19,4.85-3.12a8,8,0,0,0-.08-.91A187.67,187.67,0,0,1,211,451.52Z" style="fill: rgb(255, 255, 255); stroke: rgb(38, 50, 56); stroke-linecap: round; stroke-linejoin: round; transform-origin: 216.307px 452.516px 0px;" id="elepca89jr0xq" class="animable">
		</path>
		<path d="M274.83,444.66s-5.06,4.9-7.51,6.37-13.38,6.37-12.4,8.33,10.61,4.08,15.67,4.08,17-3.59,19.26-4.74a5.67,5.67,0,0,0,2.78-4.57c0-.65-1.64-5.87-2.45-6.85S274.83,444.66,274.83,444.66Z" style="fill: rgb(255, 255, 255); stroke: rgb(38, 50, 56); stroke-linecap: round; stroke-linejoin: round; transform-origin: 273.744px 454.051px 0px;" id="el4y12dkchf3" class="animable">
		</path>
		<path d="M289.85,458.7a5.58,5.58,0,0,0,2.75-4.22c-4.2,1.81-13.8,5.44-22.34,5.69-7.27.22-12-1.39-14.41-2.52-.76.67-1.15,1.26-.93,1.71,1,1.95,10.61,4.08,15.67,4.08S287.57,459.85,289.85,458.7Z" style="fill: rgb(255, 255, 255); stroke: rgb(38, 50, 56); stroke-linecap: round; stroke-linejoin: round; transform-origin: 273.73px 458.961px 0px;" id="ellrcjqr3452h" class="animable">
		</path>
		<path d="M225,355.22l-2.57,69.12-4.5,2.89.32,9s0,3.86,6.43,5.79a33.24,33.24,0,0,0,12.86,1s.65-8.68,1.29-11.26-.64-7.07,0-8.68,16.71-63.65,16.71-63.65l2.25-10.28,16.72,90-2.89,1.61v3.53s7.71,6.43,11.25,8a59,59,0,0,0,9.64,2.89s1-7.71,1.29-10.61-3.86-10.93-3.86-10.93,2.25-49.5,2.57-54.33-2.25-22.5-2.25-22.5l-18-55-32.15-3.22Z" style="fill: rgb(64, 123, 255); stroke: rgb(38, 50, 56); stroke-linecap: round; stroke-linejoin: round; transform-origin: 255.873px 376.885px 0px;" id="eltegk6e91ld" class="animable">
		</path>
		<path d="M210.38,199.31c-.13.75,0,17.12.48,19.77s11.33,21,11.33,21l14.47,48.22L222,358.44l8.2,4.1L249,316.49l-1.44,51.11s21.94,3.62,33.51,1.93a212.18,212.18,0,0,0,24.11-5.31s4.82-82.45,3.62-87.52S290.18,216.19,275,205.58s-40-18.81-43.15-20a36,36,0,0,0-7.48-1.69S213,183.4,210.38,199.31Z" style="fill: rgb(255, 255, 255); stroke: rgb(38, 50, 56); stroke-linecap: round; stroke-linejoin: round; transform-origin: 259.662px 276.936px 0px;" id="elptuf3e944dk" class="animable">
		</path>
		<path d="M280.53,284c1.33-.33,2.65-.7,4-1.12" style="fill: none; stroke: rgb(38, 50, 56); stroke-linecap: round; stroke-linejoin: round; transform-origin: 282.531px 283.439px 0px;" id="eluqr6s6i0pf" class="animable">
		</path>
		<path d="M244.61,285.46s16.66,2.45,32.87-.77" style="fill: none; stroke: rgb(38, 50, 56); stroke-linecap: round; stroke-linejoin: round; transform-origin: 261.045px 285.521px 0px;" id="elbuscl5g7ijc" class="animable">
		</path>
		<path d="M243.33,287.71s3.53,4.51,22.18,5.15" style="fill: none; stroke: rgb(38, 50, 56); stroke-linecap: round; stroke-linejoin: round; transform-origin: 254.42px 290.285px 0px;" id="eli0dvk3t9b8h" class="animable">
		</path>
		<path d="M267.88,307.86q2.73,1.06,5.67,2" style="fill: none; stroke: rgb(38, 50, 56); stroke-linecap: round; stroke-linejoin: round; transform-origin: 270.715px 308.859px 0px;" id="elghikyc9rah" class="animable">
		</path>
		<path d="M242.36,293.82A105.63,105.63,0,0,0,263.47,306" style="fill: none; stroke: rgb(38, 50, 56); stroke-linecap: round; stroke-linejoin: round; transform-origin: 252.914px 299.91px 0px;" id="elwrw8mix7afl" class="animable">
		</path>
		<polyline points="249.12 311.82 249.12 301.22 245.9 296.39 250.08 292.21 248.15 287.71 248.47 284.82" style="fill: none; stroke: rgb(38, 50, 56); stroke-linecap: round; stroke-linejoin: round; transform-origin: 247.99px 298.32px 0px;" id="elh6pwqgvoyv4" class="animable">
		</polyline>
		<polygon points="216.65 203.89 224.84 237.4 226.4 184.83 224.36 183.88 216.65 203.89" style="fill: rgb(64, 123, 255); stroke: rgb(38, 50, 56); stroke-linecap: round; stroke-linejoin: round; transform-origin: 221.525px 210.64px 0px;" id="elvp5k70nozt" class="animable">
		</polygon>
		<path d="M219.64,152.27s-.65-8.75,2.27-10.7,3.89,2.59,3.89,2.59,3.24-9.07,7.13-8.42,3.89,1.94,3.89,1.94,6.48-3.89,9.07-1.3a8.35,8.35,0,0,1,2.27,6.16s7.46-1.29,8.76,2.27-3.57,8.43-3.57,8.43a7.59,7.59,0,0,1,1.62,5.84c-.32,3.89-4.54,5.51-4.54,5.51s4.54,2.59,2.6,6.15-6.16,3.57-6.16,3.57,1.62,5.51-3.25,6.48a20.37,20.37,0,0,1-9.07-.32l-3.24,1.94-7.46-7.78Z" style="fill: rgb(38, 50, 56); stroke: rgb(38, 50, 56); stroke-linecap: round; stroke-linejoin: round; transform-origin: 238.359px 158.949px 0px;" id="elzarq5ysbv68" class="animable">
		</path>
		<path d="M180.78,160.39c-3.38,6.85-5.3,15.33-1.66,21.05,4.54,7.13,8.1,12,8.43,13.94s-.33,7.13,1.29,7.78,8.76,6.48,11.35,7.78,7.13,2.27,8.75.65,4.54-7.78,4.54-7.78l10.4,10.13,1.94-27.88-.67-2s7.78-9.41,0-27.23c-3.62-8.3-13.38-11.49-21.82-11.18C192.92,146,185.34,151.15,180.78,160.39Z" style="fill: rgb(222, 222, 222); stroke: rgb(38, 50, 56); stroke-linecap: round; stroke-linejoin: round; transform-origin: 202.879px 179.785px 0px;" id="elf2nloykxqls" class="animable">
		</path>
		<path d="M214.13,198.62l-5.51-8.75,5.83-11.35s-6.81,10-10.37,12.32c-3.18,2-14.06,6.87-16.4,7.91,0,2,.19,4,1.16,4.41,1.62.65,8.76,6.48,11.35,7.78s7.13,2.27,8.75.65,4.54-7.78,4.54-7.78l6.16-15.88Z" style="fill: rgb(64, 123, 255); stroke: rgb(38, 50, 56); stroke-linecap: round; stroke-linejoin: round; transform-origin: 203.66px 195.479px 0px;" id="elpnbe2lbq11p" class="animable">
		</path>
		<path d="M214.13,184s-1.3-7.78,1.94-8.76,7.32,4.95,6.49,9.08c-1.2,5.86-8.91,5.81-6.81,2.92" style="fill: rgb(222, 222, 222); stroke: rgb(38, 50, 56); stroke-linecap: round; stroke-linejoin: round; transform-origin: 218.27px 182.143px 0px;" id="el4fr02olzytp" class="animable">
		</path>
		<path d="M225.15,184s7.78-9.41,0-27.23c-3.62-8.3-13.38-11.49-21.82-11.18-10.41.38-18,5.52-22.55,14.76a34.69,34.69,0,0,0-3.51,11.44c.48.51,2.68,2.53,6.39.54,4.21-2.27,8.1-9.4,13.29-6.16s-.33,13.61,5.18,13,14.27-2.27,15.89-.65,6.22,6.8,8.38,6.31Z" style="fill: rgb(38, 50, 56); stroke: rgb(38, 50, 56); stroke-linecap: round; stroke-linejoin: round; transform-origin: 202.938px 165.215px 0px;" id="el8x727muz99k" class="animable">
		</path>
		<line x1="198.47" y1="184.05" x2="214.76" y2="176.57" style="fill: none; stroke: rgb(38, 50, 56); stroke-linecap: round; stroke-linejoin: round; transform-origin: 206.615px 180.31px 0px;" id="elb0hqazsas8m" class="animable">
		</line>
		<path d="M187.27,189.13l11.2-5.08,1.7,3.52a2.45,2.45,0,0,1-1.13,3.26l-6.52,3.2a2.39,2.39,0,0,1-3.17-1Z" style="fill: none; stroke: rgb(38, 50, 56); stroke-linecap: round; stroke-linejoin: round; transform-origin: 193.842px 189.166px 0px;" id="elhsxsnhrhlo4" class="animable">
		</path>
		<path d="M177.39,194.07l7.66-4,1.7,3.52a2.44,2.44,0,0,1-1.13,3.25l-3,1.4a2.39,2.39,0,0,1-3.17-1Z" style="fill: none; stroke: rgb(38, 50, 56); stroke-linecap: round; stroke-linejoin: round; transform-origin: 182.191px 194.281px 0px;" id="elnb4aqcoybu" class="animable">
		</path>
		<line x1="185.05" y1="190.11" x2="187.27" y2="189.13" style="fill: none; stroke: rgb(38, 50, 56); stroke-linecap: round; stroke-linejoin: round; transform-origin: 186.16px 189.62px 0px;" id="el2plyv3u8yxo" class="animable">
		</line>
		<line x1="185.94" y1="191.44" x2="187.92" y2="190.65" style="fill: none; stroke: rgb(38, 50, 56); stroke-linecap: round; stroke-linejoin: round; transform-origin: 186.93px 191.045px 0px;" id="eliapaz7s3y4" class="animable">
		</line>
		<path d="M192.65,188.55l1,2.76s3.82-1.45,5.14-3.16" style="fill: none; stroke: rgb(38, 50, 56); stroke-linecap: round; stroke-linejoin: round; transform-origin: 195.719px 189.729px 0px;" id="eljpiot9z9yuc" class="animable">
		</path>
		<path d="M189.36,186.7s3.55-3.55,8.16-3.29" style="fill: none; stroke: rgb(38, 50, 56); stroke-linecap: round; stroke-linejoin: round; transform-origin: 193.439px 185.047px 0px;" id="elp4umhapa0kk" class="animable">
		</path>
		<path d="M181.93,262.48s-14.23-6.27-15-6.51-10.85-4.58-12.3-4.34-7.47,5.79-8.68,6.75-5.54,6.51-4.82,8,2.41-.73,2.41-.73-1.44,2.17.24,2.41,2.65-1.68,2.65-1.68-.48,1.93,1,2.17,2.65-1.69,2.65-1.69,1.21,1.69,2.17,1.69,5.06-4.58,5.06-4.58,2.9,2.65,5.31,3.13,8.68-1,8.68-1l10.85,5.54Z" style="fill: rgb(222, 222, 222); stroke: rgb(38, 50, 56); stroke-linecap: round; stroke-linejoin: round; transform-origin: 161.6px 261.631px 0px;" id="ellkgmnk4s17i" class="animable">
		</path>
		<path d="M175.9,265.13a13.86,13.86,0,0,0,.25-5.19c-4-1.77-8.76-3.83-9.17-4-.72-.24-10.85-4.58-12.3-4.34s-7.47,5.79-8.68,6.75-5.54,6.51-4.82,8,2.41-.73,2.41-.73-1.44,2.17.24,2.41,2.65-1.68,2.65-1.68-.48,1.93,1,2.17,2.65-1.69,2.65-1.69,1.21,1.69,2.17,1.69,5.06-4.58,5.06-4.58,2.9,2.65,5.31,3.13,8.68-1,8.68-1l3.36,1.71A15.62,15.62,0,0,0,175.9,265.13Z" style="fill: rgb(64, 123, 255); stroke: rgb(38, 50, 56); stroke-linecap: round; stroke-linejoin: round; transform-origin: 158.693px 260.064px 0px;" id="ell24uo968679" class="animable">
		</path>
		<line x1="150.1" y1="266.82" x2="156.37" y2="259.34" style="fill: rgb(255, 255, 255); stroke: rgb(38, 50, 56); stroke-linecap: round; stroke-linejoin: round; transform-origin: 153.235px 263.08px 0px;" id="elwjqj35g560b" class="animable">
		</line>
		<path d="M146.48,266.34s3.62-6.27,4.59-7,4.34-3.37,4.34-3.37" style="fill: rgb(255, 255, 255); stroke: rgb(38, 50, 56); stroke-linecap: round; stroke-linejoin: round; transform-origin: 150.945px 261.154px 0px;" id="elnc8pmg9kibq" class="animable">
		</path>
		<polyline points="143.59 265.61 148.41 258.62 153.24 255.25" style="fill: rgb(255, 255, 255); stroke: rgb(38, 50, 56); stroke-linecap: round; stroke-linejoin: round; transform-origin: 148.415px 260.43px 0px;" id="eld66i6gfrhd5" class="animable">
		</polyline>
		<path d="M238.35,205.82s-6,3.62-6.51,9.4S224.12,269,224.12,269l-42.92-8-2.41,19.53s60.28,12.3,61.24,10.85,19.77-58.83,19.77-58.83" style="fill: rgb(255, 255, 255); stroke: rgb(38, 50, 56); stroke-linecap: round; stroke-linejoin: round; transform-origin: 219.295px 248.658px 0px;" id="ely2gg8m4mu2" class="animable">
		</path>
		<path d="M239.23,265.61c1.31-.38,2.64-.78,3.94-1.2" style="fill: none; stroke: rgb(38, 50, 56); stroke-linecap: round; stroke-linejoin: round; transform-origin: 241.201px 265.01px 0px;" id="elssxvae7kuq9" class="animable">
		</path>
		<path d="M225.81,269s5-1.05,10.89-2.67" style="fill: none; stroke: rgb(38, 50, 56); stroke-linecap: round; stroke-linejoin: round; transform-origin: 231.254px 267.664px 0px;" id="elk7j8pma6t2p" class="animable">
		</path>
		<path d="M244.48,253.33c-5.77,4.3-14.55,10.66-18.43,12.52" style="fill: none; stroke: rgb(38, 50, 56); stroke-linecap: round; stroke-linejoin: round; transform-origin: 235.266px 259.59px 0px;" id="el2s87hn9suho" class="animable">
		</path>
		<path d="M249.92,249.22s-1.33,1-3.39,2.57" style="fill: none; stroke: rgb(38, 50, 56); stroke-linecap: round; stroke-linejoin: round; transform-origin: 248.227px 250.504px 0px;" id="el7skwn1ewmpg" class="animable">
		</path>
		<path d="M243.41,241.74s-8.92,11.09-10.61,12.54" style="fill: none; stroke: rgb(38, 50, 56); stroke-linecap: round; stroke-linejoin: round; transform-origin: 238.105px 248.01px 0px;" id="el86h9ac5utlv" class="animable">
		</path>
	</g>
	<defs>
		<filter id="active" height="200%">
			<feMorphology in="SourceAlpha" result="DILATED" operator="dilate" radius="2">
			</feMorphology>
			<feFlood flood-color="#32DFEC" flood-opacity="1" result="PINK">
			</feFlood>
			<feComposite in="PINK" in2="DILATED" operator="in" result="OUTLINE">
			</feComposite>
			<feMerge>
				<feMergeNode in="OUTLINE">
				</feMergeNode>
				<feMergeNode in="SourceGraphic">
				</feMergeNode>
			</feMerge>
		</filter>
		<filter id="hover" height="200%">
			<feMorphology in="SourceAlpha" result="DILATED" operator="dilate" radius="2">
			</feMorphology>
			<feFlood flood-color="#ff0000" flood-opacity="0.5" result="PINK">
			</feFlood>
			<feComposite in="PINK" in2="DILATED" operator="in" result="OUTLINE">
			</feComposite>
			<feMerge>
				<feMergeNode in="OUTLINE">
				</feMergeNode>
				<feMergeNode in="SourceGraphic">
				</feMergeNode>
			</feMerge>
			<feColorMatrix type="matrix" values="0   0   0   0   0                0   1   0   0   0                0   0   0   0   0                0   0   0   1   0 ">
			</feColorMatrix>
		</filter>
	</defs>
</svg>
