<svg class="animated" id="freepik_stories-face-mask-emoji" xmlns="http://www.w3.org/2000/svg" viewBox="0 0 500 500" version="1.1" xmlns:xlink="http://www.w3.org/1999/xlink" xmlns:svgjs="http://svgjs.com/svgjs">
	<style>
		svg#freepik_stories-face-mask-emoji:not(.animated) .animable {opacity: 0;}svg#freepik_stories-face-mask-emoji.animated #freepik--Emoji--inject-66 {animation: 1.5s Infinite  linear floating;animation-delay: 0s;}            @keyframes floating {                0% {                    opacity: 1;                    transform: translateY(0px);                }                50% {                    transform: translateY(-10px);                }                100% {                    opacity: 1;                    transform: translateY(0px);                }            }
	</style>
	<g id="freepik--background-complete--inject-66" style="transform-origin: 250px 228.23px 0px;" class="animable">
		<rect x="416.78" y="398.49" width="33.12" height="0.25" style="fill: rgb(235, 235, 235); transform-origin: 433.34px 398.615px 0px;" id="eld1h5005nz6" class="animable">
		</rect>
		<rect x="322.53" y="401.21" width="8.69" height="0.25" style="fill: rgb(235, 235, 235); transform-origin: 326.875px 401.335px 0px;" id="elvkyjd0nc2h" class="animable">
		</rect>
		<rect x="396.59" y="389.21" width="19.19" height="0.25" style="fill: rgb(235, 235, 235); transform-origin: 406.185px 389.335px 0px;" id="el8zx4k8w7iw8" class="animable">
		</rect>
		<rect x="52.46" y="390.89" width="43.19" height="0.25" style="fill: rgb(235, 235, 235); transform-origin: 74.055px 391.015px 0px;" id="elp0q7q1qz1v9" class="animable">
		</rect>
		<rect x="104.56" y="390.89" width="6.33" height="0.25" style="fill: rgb(235, 235, 235); transform-origin: 107.725px 391.015px 0px;" id="el31hixgpmni7" class="animable">
		</rect>
		<g id="elv94hr4kimum">
			<rect x="178.18" y="348.4" width="0.25" height="93.68" style="fill: rgb(235, 235, 235); transform-origin: 178.305px 395.24px 0px; transform: rotate(-89.74deg);" class="animable">
			</rect>
		</g>
		<path d="M238.4,337.8H45.3a5.71,5.71,0,0,1-5.71-5.71V60.66A5.71,5.71,0,0,1,45.3,55H238.4a5.71,5.71,0,0,1,5.71,5.71V332.09A5.71,5.71,0,0,1,238.4,337.8ZM45.3,55.2a5.47,5.47,0,0,0-5.46,5.46V332.09a5.47,5.47,0,0,0,5.46,5.46H238.4a5.47,5.47,0,0,0,5.46-5.46V60.66a5.47,5.47,0,0,0-5.46-5.46Z" style="fill: rgb(235, 235, 235); transform-origin: 141.85px 196.4px 0px;" id="elbi6sly0uql5" class="animable">
		</path>
		<path d="M454.7,337.8H261.6a5.71,5.71,0,0,1-5.71-5.71V60.66A5.71,5.71,0,0,1,261.6,55H454.7a5.71,5.71,0,0,1,5.71,5.71V332.09A5.71,5.71,0,0,1,454.7,337.8ZM261.6,55.2a5.47,5.47,0,0,0-5.46,5.46V332.09a5.47,5.47,0,0,0,5.46,5.46H454.7a5.47,5.47,0,0,0,5.46-5.46V60.66a5.47,5.47,0,0,0-5.46-5.46Z" style="fill: rgb(235, 235, 235); transform-origin: 358.15px 196.4px 0px;" id="elca0jbvjofrd" class="animable">
		</path>
		<rect y="382.4" width="500" height="0.25" style="fill: rgb(235, 235, 235); transform-origin: 250px 382.525px 0px;" id="el4vvqsx78kda" class="animable">
		</rect>
		<circle cx="255.43" cy="313.05" r="59.3" style="fill: rgb(224, 224, 224); transform-origin: 255.43px 313.05px 0px;" id="eley0t6usrbx" class="animable">
		</circle>
		<path d="M264.22,291.8c-3.47-1.14-6.63-.8-7,.75s2.1,3.74,5.57,4.89,6.6.81,7-.76S267.69,292.94,264.22,291.8Z" style="fill: rgb(240, 240, 240); transform-origin: 263.508px 294.623px 0px;" id="eluj5s1temg9" class="animable">
		</path>
		<path d="M304.48,302.22c-3.43-.63-6.41.11-6.67,1.63s2.31,3.3,5.74,3.93,6.42-.11,6.68-1.64S307.91,302.85,304.48,302.22Z" style="fill: rgb(240, 240, 240); transform-origin: 304.02px 304.998px 0px;" id="elmzabrqcllcc" class="animable">
		</path>
		<path d="M267.91,283.07a11.27,11.27,0,0,0-2.66,2,3.75,3.75,0,0,0-1,3.09,2.31,2.31,0,0,0,2.39,1.9c1-.14,1.73-1.05,2.72-1.19,1.23-.18,2.26.86,3.1,1.77s2,1.87,3.19,1.52a2.29,2.29,0,0,0,1.43-2.34,7,7,0,0,0-1.19-2.66C272.23,280.27,267.91,283.07,267.91,283.07Z" style="fill: rgb(255, 255, 255); transform-origin: 270.652px 287.371px 0px;" id="elnumu7idncq" class="animable">
		</path>
		<path d="M303.05,293a9,9,0,0,1,1.4,2.41,3.11,3.11,0,0,1-.21,2.7,1.4,1.4,0,0,1-2,.61c-.72-.42-1-1.35-1.72-1.77-.89-.53-2-.06-2.95.38s-2.13.82-2.94.17a1.9,1.9,0,0,1-.36-2.26c.35-.74,1.12-1.15,1.75-1.68C301,289.41,303.05,293,303.05,293Z" style="fill: rgb(255, 255, 255); transform-origin: 299.355px 295.242px 0px;" id="elj2763m2vkyq" class="animable">
		</path>
		<path d="M217.57,348.55c-9.35-3.92-16-11.46-19.19-21.79-4.19-13.51-1.49-28.17,3.34-35.67,1.67-2.6,3.86-3.92,6.49-3.91a7,7,0,0,1,.79,0c9.43,1,21,18.79,21.47,19.56l-2.28,1.47c-3.28-5.11-13.21-18.26-20-18.37-1.68,0-3.06.88-4.22,2.68-4.38,6.8-6.92,20.82-3,33.4,2.06,6.65,6.8,15.54,17.65,20.1Z" style="fill: rgb(250, 250, 250); transform-origin: 213.389px 317.859px 0px;" id="el7lqi9yyq1l" class="animable">
		</path>
		<path d="M315.66,317.9S294.11,297.49,281.74,298s-55.26,5.49-55.26,5.49,2,32.29-12,42.79c0,0,21.91,23,58.36,25.17C272.84,371.42,305,364.8,315.66,317.9Z" style="fill: rgb(245, 245, 245); transform-origin: 265.07px 334.721px 0px;" id="elt5mg5tkxf3r" class="animable">
		</path>
		<path d="M214.48,346.25c7.57-5.66,10.45-17.64,11.51-27.5,13.52-1.6,42.56-4.5,55.45-1.74,12.61,2.7,24.9,11.38,29.72,15.56-13.17,33.62-38.32,38.85-38.32,38.85C236.39,369.23,214.48,346.25,214.48,346.25Z" style="fill: rgb(240, 240, 240); transform-origin: 262.82px 343.645px 0px;" id="eluqe4azfcfjp" class="animable">
		</path>
		<path d="M223.24,332.38c12.88,0,39.3.37,50.55,2.7,9.85,2,20.75,11.29,26.19,17.28-12.72,16-27.14,19.06-27.14,19.06-36.45-2.19-58.36-25.17-58.36-25.17C218.69,343.11,221.43,338,223.24,332.38Z" style="fill: rgb(235, 235, 235); transform-origin: 257.23px 351.9px 0px;" id="elc9klnxpda1t" class="animable">
		</path>
		<path d="M214.48,346.25a21,21,0,0,0,5.11-5.79c8.93,5.85,30.12,19,42.74,20.8,11.08,1.57,20.93,2.7,25.22,3-8.16,5.77-14.71,7.16-14.71,7.16C236.39,369.23,214.48,346.25,214.48,346.25Z" style="fill: rgb(240, 240, 240); transform-origin: 251.016px 355.941px 0px;" id="el8z8n6x72q8u" class="animable">
		</path>
		<g id="elvi8mju99zxm">
			<circle cx="158.26" cy="224.96" r="81.66" style="fill: rgb(230, 230, 230); transform-origin: 158.26px 224.96px 0px; transform: rotate(-24.12deg);" class="animable">
			</circle>
		</g>
		<path d="M146.71,195.14c5-.1,9.08,1.73,8.9,3.85s-4.34,3.95-9.37,4-9-1.64-8.9-3.86S141.68,195.23,146.71,195.14Z" style="fill: rgb(240, 240, 240); transform-origin: 146.477px 199.063px 0px;" id="el3l71jksu4sc" class="animable">
		</path>
		<path d="M90.51,206.12c4.55-1.5,8.76-1,9.42.94s-2.3,4.87-7,6.43-8.88,1.15-9.55-.89S86,207.62,90.51,206.12Z" style="fill: rgb(240, 240, 240); transform-origin: 91.6563px 209.842px 0px;" id="el81i8v8s5f3d" class="animable">
		</path>
		<path d="M210.67,274.22c13.22-5.29,22.71-15.72,27.45-30.16,6.19-18.87,2.73-39.52-3.87-50.16-2.29-3.69-5.34-5.59-9-5.64a10.36,10.36,0,0,0-1.11,0c-13.27,1.16-29.87,25.91-30.59,27l3.16,2.11c4.72-7.1,19-25.34,28.48-25.34,2.36,0,4.28,1.29,5.86,3.84,6,9.66,9.26,29.4,3.49,47-3.05,9.29-9.9,21.67-25.24,27.82Z" style="fill: rgb(250, 250, 250); transform-origin: 217.455px 231.23px 0px;" id="ellb4ol1f94i" class="animable">
		</path>
		<path d="M75.71,228.4s28.63-27.62,46-26.66,77.47,9,77.47,9-3.6,45.3,15.89,60.37c0,0-29.21,31.2-80.43,33.45C134.64,304.53,89.55,294.5,75.71,228.4Z" style="fill: rgb(245, 245, 245); transform-origin: 145.391px 253.137px 0px;" id="elxjqgq5jl41" class="animable">
		</path>
		<path d="M215.07,271.08c-10.51-8.13-14.28-25-15.55-38.89-19-2.55-59.66-7.29-77.83-3.71-17.76,3.51-33.12,14.87-40,20.62,17.73,47.52,52.95,55.43,52.95,55.43C185.86,302.28,215.07,271.08,215.07,271.08Z" style="fill: rgb(240, 240, 240); transform-origin: 148.381px 265.861px 0px;" id="el2ytzvxe5opa" class="animable">
		</path>
		<path d="M203.08,251.39C185,251.13,147.88,251,132,254c-13.87,2.63-27.29,14.82-35.07,23.11,17.5,22.79,37.69,27.38,37.69,27.38,51.22-2.25,80.43-33.45,80.43-33.45C209.22,266.56,205.49,259.31,203.08,251.39Z" style="fill: rgb(235, 235, 235); transform-origin: 155.99px 277.877px 0px;" id="eldyb43l1gaq" class="animable">
		</path>
		<path d="M215.07,271.08a29.29,29.29,0,0,1-7-8.26c-12.69,8-42.75,26-60.51,28.24-15.59,2-27.35,2.76-33.38,3.09,11.32,8.28,20.5,10.38,20.5,10.38C185.86,302.28,215.07,271.08,215.07,271.08Z" style="fill: rgb(240, 240, 240); transform-origin: 164.625px 283.676px 0px;" id="ely0kflwmlrbh" class="animable">
		</path>
		<path d="M138.46,180.91a6,6,0,0,0-.94.17,5.54,5.54,0,1,0,6.83,3.84A5.09,5.09,0,0,0,138.46,180.91Z" style="fill: rgb(250, 250, 250); transform-origin: 139.016px 186.393px 0px;" id="eldv9z9ymmzm" class="animable">
		</path>
		<path d="M97.46,189.91a5.85,5.85,0,0,0-.93.17,5.54,5.54,0,1,0,6.82,3.83A5.09,5.09,0,0,0,97.46,189.91Z" style="fill: rgb(250, 250, 250); transform-origin: 98.0195px 195.393px 0px;" id="elk2vx02395hi" class="animable">
		</path>
	</g>
	<g id="freepik--Shadow--inject-66" style="transform-origin: 250px 415.69px 0px;" class="animable">
		<ellipse id="freepik--path--inject-66" cx="250" cy="415.69" rx="193.89" ry="11.32" style="fill: rgb(245, 245, 245); transform-origin: 250px 415.69px 0px;" class="animable">
		</ellipse>
	</g>
	<g id="freepik--Emoji--inject-66" style="transform-origin: 309.154px 173.275px 0px;" class="animable animator-active">
		<circle cx="309.07" cy="162.19" r="93.43" style="fill: rgb(64, 123, 255); transform-origin: 309.07px 162.19px 0px;" id="elth3o3bbsb1p" class="animable">
		</circle>
		<g id="el171kp6yhau8">
			<ellipse cx="305.2" cy="159.06" rx="84.45" ry="86.06" style="fill: rgb(255, 255, 255); opacity: 0.1; isolation: isolate; transform-origin: 305.2px 159.06px 0px;" class="animable">
			</ellipse>
		</g>
		<g id="ely8pltm4gfk">
			<path d="M248.08,107.6c2.84,4.67,10.34,2.92,18.06-1.78S278.87,95.27,276,90.6s-10.45-3.09-18.16,1.61S245.23,102.92,248.08,107.6Z" style="fill: rgb(255, 255, 255); opacity: 0.1; isolation: isolate; transform-origin: 262.039px 99.0684px 0px;" class="animable">
			</path>
		</g>
		<g id="el2skc4awuk9c">
			<path d="M387.8,176.17a27.85,27.85,0,0,0,11.72-20c-3.94,4.6-7.5,8.88-11.44,13.47C388.15,171.87,387.72,174,387.8,176.17Z" style="opacity: 0.2; transform-origin: 393.654px 166.172px 0px;" class="animable">
			</path>
		</g>
		<g id="elsmt04vx9tt8">
			<path d="M356.78,220.49c1.21-1.24,2.47-2.77,3.67-4A54,54,0,0,0,396,189.74a2.72,2.72,0,0,0,2.6-1A42.84,42.84,0,0,1,383,211.94,41.87,41.87,0,0,1,356.78,220.49Z" style="opacity: 0.2; transform-origin: 377.691px 204.617px 0px;" class="animable">
			</path>
		</g>
		<g id="eltqz2l35nq6m">
			<path d="M389.1,176.17s-5.78,60.48-82.5,57.92Z" style="opacity: 0.2; transform-origin: 347.852px 205.17px 0px;" class="animable">
			</path>
		</g>
		<path d="M357.64,218.74l-.26-4,.37,0a43.38,43.38,0,0,0,39.38-34.92,93,93,0,0,0,1.62-19.06c-3.86,6.42-9.64,12-13.12,12v-4c1.91-.1,9.16-6.87,12.16-15.08a2.51,2.51,0,0,1,2.8-1.62,2.48,2.48,0,0,1,2.07,2.46c0,.83,0,1.75.05,2.76a103.75,103.75,0,0,1-1.65,23.32,47.38,47.38,0,0,1-43,38.14Z" style="fill: rgb(255, 255, 255); transform-origin: 380.092px 185.379px 0px;" id="elx6kpiaeidf" class="animable">
		</path>
		<g id="el56z3sdhoexl">
			<path d="M229.86,176.32a27.89,27.89,0,0,1-11.76-20c3.94,4.59,7.52,8.86,11.47,13.45C229.5,172,229.93,174.09,229.86,176.32Z" style="opacity: 0.2; transform-origin: 223.984px 166.32px 0px;" class="animable">
			</path>
		</g>
		<g id="el5wwan4411j2">
			<path d="M261.5,220.58c-1.21-1.24-2.47-2.76-3.68-4a54,54,0,0,1-35.54-26.68,2.74,2.74,0,0,1-2.61-1,42.86,42.86,0,0,0,15.57,23.21A41.87,41.87,0,0,0,261.5,220.58Z" style="opacity: 0.2; transform-origin: 240.586px 204.744px 0px;" class="animable">
			</path>
		</g>
		<g id="elf6aecwctyo4">
			<path d="M227.4,176.32s5.89,60.47,82.6,57.77Z" style="opacity: 0.2; transform-origin: 268.699px 205.248px 0px;" class="animable">
			</path>
		</g>
		<path d="M260.49,218.83l-.38,0A47.39,47.39,0,0,1,217,180.75a104.21,104.21,0,0,1-1.69-23.32c0-1,0-1.93,0-2.76a2.52,2.52,0,0,1,4.88-.85c3,8.21,10.28,15,12.19,15.06v4h0c-3.49,0-9.27-5.55-13.15-12A92.66,92.66,0,0,0,220.94,180a43.36,43.36,0,0,0,39.44,34.85l.37,0Z" style="fill: rgb(255, 255, 255); transform-origin: 237.988px 185.504px 0px;" id="elus3m27el0f" class="animable">
		</path>
		<path d="M359,176c10.38.6,20.76,1.41,29.38,2.53.41-1.61.79-3.25,1.09-4.93l.06-.3c.85-5.17-1.7-10.27-5.71-11.37-7.75-2-15.44-3.51-23-4.72l-1.91-.25a371.7,371.7,0,0,0-80.5-1.36,322.67,322.67,0,0,0-45.54,8.29,6.57,6.57,0,0,0-2.84,1.59c-3.27,3-4,8.93-1.66,13.16.19.54.4,1.06.6,1.6,8.5-1.28,18.63-2.3,28.76-3.11A741,741,0,0,1,359,176Z" style="fill: rgb(64, 123, 255); transform-origin: 308.35px 167.141px 0px;" id="el3xr6siac85p" class="animable">
		</path>
		<g id="elvc1n65i2m2j">
			<path d="M359,176c10.38.6,20.76,1.41,29.38,2.53.41-1.61.79-3.25,1.09-4.93l.06-.3c.85-5.17-1.7-10.27-5.71-11.37-7.75-2-15.44-3.51-23-4.72l-1.91-.25a371.7,371.7,0,0,0-80.5-1.36,322.67,322.67,0,0,0-45.54,8.29,6.57,6.57,0,0,0-2.84,1.59c-3.27,3-4,8.93-1.66,13.16.19.54.4,1.06.6,1.6,8.5-1.28,18.63-2.3,28.76-3.11A741,741,0,0,1,359,176Z" style="fill: rgb(255, 255, 255); opacity: 0.6; transform-origin: 308.35px 167.141px 0px;" class="animable">
			</path>
		</g>
		<path d="M316.43,233.78q-6.15.21-12.3.2A95.26,95.26,0,0,0,316.43,233.78Z" style="fill: rgb(64, 123, 255); transform-origin: 310.279px 233.938px 0px;" id="elocxgee2p4tg" class="animable">
		</path>
		<path d="M369.87,210.57c-3.53.35-7.13.66-10.73,1a741,741,0,0,1-101.28,1.13q-3.9-.22-7.76-.49c15,13.79,34.42,20.84,54,21.82q6.15,0,12.3-.2C336.58,232.18,356,224.21,369.87,210.57Z" style="fill: rgb(64, 123, 255); transform-origin: 309.986px 222.301px 0px;" id="el1f2e3s2i473" class="animable">
		</path>
		<g id="elkh1d9rbd93m">
			<path d="M369.87,210.57c-3.53.35-7.13.66-10.73,1a741,741,0,0,1-101.28,1.13q-3.9-.22-7.76-.49c15,13.79,34.42,20.84,54,21.82q6.15,0,12.3-.2C336.58,232.18,356,224.21,369.87,210.57Z" style="fill: rgb(255, 255, 255); opacity: 0.4; transform-origin: 309.986px 222.301px 0px;" class="animable">
			</path>
		</g>
		<path d="M359.14,211.52c3.6-.29,7.2-.6,10.73-1a68.65,68.65,0,0,0,12.76-17.11l-23.58.28c-33.59.36-67.68.76-101.27,1.12l-21.64.25a78.61,78.61,0,0,0,14,17q3.85.27,7.76.49A741,741,0,0,0,359.14,211.52Z" style="fill: rgb(64, 123, 255); transform-origin: 309.385px 203.607px 0px;" id="eldusd861t5ab" class="animable">
		</path>
		<g id="elh3begm7xxvr">
			<path d="M359.14,211.52c3.6-.29,7.2-.6,10.73-1a68.65,68.65,0,0,0,12.76-17.11l-23.58.28c-33.59.36-67.68.76-101.27,1.12l-21.64.25a78.61,78.61,0,0,0,14,17q3.85.27,7.76.49A741,741,0,0,0,359.14,211.52Z" style="fill: rgb(255, 255, 255); opacity: 0.3; transform-origin: 309.385px 203.607px 0px;" class="animable">
			</path>
		</g>
		<path d="M359.05,193.74l23.58-.28a68.05,68.05,0,0,0,5.72-15c-8.62-1.12-19-1.93-29.38-2.53a741,741,0,0,0-101.28,1.13c-10.13.81-20.26,1.83-28.76,3.11a85.18,85.18,0,0,0,7.21,14.92l21.64-.25C291.37,194.5,325.46,194.1,359.05,193.74Z" style="fill: rgb(64, 123, 255); transform-origin: 308.641px 184.902px 0px;" id="elranceu4758" class="animable">
		</path>
		<g id="eln1p45vemvc">
			<path d="M359.05,193.74l23.58-.28a68.05,68.05,0,0,0,5.72-15c-8.62-1.12-19-1.93-29.38-2.53a741,741,0,0,0-101.28,1.13c-10.13.81-20.26,1.83-28.76,3.11a85.18,85.18,0,0,0,7.21,14.92l21.64-.25C291.37,194.5,325.46,194.1,359.05,193.74Z" style="fill: rgb(255, 255, 255); opacity: 0.4; transform-origin: 308.641px 184.902px 0px;" class="animable">
			</path>
		</g>
		<path d="M198.38,239.56c3.26-9.3,6.65-26.54,4.39-37.57a5.64,5.64,0,0,1,6.3-6.77,4.78,4.78,0,0,1,2.85,1.54c7.38,8.26,8.3,12,4.55,32.81C215.05,235.78,204.47,238.67,198.38,239.56Z" style="fill: rgb(64, 123, 255); transform-origin: 208.502px 217.361px 0px;" id="el61ner0p25th" class="animable">
		</path>
		<g id="eldu8qkmqa0y">
			<path d="M198.38,239.56c3.26-9.3,6.65-26.54,4.39-37.57a5.64,5.64,0,0,1,6.3-6.77,4.78,4.78,0,0,1,2.85,1.54c7.38,8.26,8.3,12,4.55,32.81C215.05,235.78,204.47,238.67,198.38,239.56Z" style="fill: rgb(255, 255, 255); opacity: 0.2; isolation: isolate; transform-origin: 208.502px 217.361px 0px;" class="animable">
			</path>
		</g>
		<path d="M198.57,266a83.7,83.7,0,0,1-.9-23.91c1-9.15,11.22-16.4,24.81-20.65,49.78-15.59,40.58,17.53,40.73,30.51,0,.15,0,.3,0,.45.08,9.36-2.89,24.82-11.15,24.34-.1,0-.12.17-.22.18C194.77,280.37,200,272.87,198.57,266Z" style="fill: rgb(64, 123, 255); transform-origin: 230.496px 247.572px 0px;" id="elxl2gb7xvaw" class="animable">
		</path>
		<g id="el1blcxszcyz">
			<g style="opacity: 0.3; isolation: isolate; transform-origin: 230.496px 247.572px 0px;" class="animable">
				<path d="M198.57,266a83.7,83.7,0,0,1-.9-23.91c1-9.15,11.22-16.4,24.81-20.65,49.78-15.59,40.58,17.53,40.73,30.51,0,.15,0,.3,0,.45.08,9.36-2.89,24.82-11.15,24.34-.1,0-.12.17-.22.18C194.77,280.37,200,272.87,198.57,266Z" style="fill: rgb(255, 255, 255); transform-origin: 230.496px 247.572px 0px;" id="el515u5jdgmy9" class="animable">
				</path>
			</g>
		</g>
		<path d="M419.9,239.36c-3.28-9.3-6.69-26.53-4.46-37.57a5.64,5.64,0,0,0-6.31-6.76,4.87,4.87,0,0,0-2.85,1.55c-7.36,8.27-8.27,12-4.49,32.81C403.23,235.61,413.82,238.48,419.9,239.36Z" style="fill: rgb(64, 123, 255); transform-origin: 409.754px 217.166px 0px;" id="el09od5cjb5cys" class="animable">
		</path>
		<g id="el5qrt1matx8">
			<path d="M419.9,239.36c-3.28-9.3-6.69-26.53-4.46-37.57a5.64,5.64,0,0,0-6.31-6.76,4.87,4.87,0,0,0-2.85,1.55c-7.36,8.27-8.27,12-4.49,32.81C403.23,235.61,413.82,238.48,419.9,239.36Z" style="fill: rgb(255, 255, 255); opacity: 0.2; isolation: isolate; transform-origin: 409.754px 217.166px 0px;" class="animable">
			</path>
		</g>
		<path d="M419.76,265.75a83.68,83.68,0,0,0,.86-23.91c-1-9.15-11.26-16.38-24.85-20.6-49.81-15.49-40.55,17.6-40.68,30.59v.45c-.07,9.35,2.93,24.81,11.19,24.31.1,0,.12.18.22.18C423.58,280.16,418.39,272.66,419.76,265.75Z" style="fill: rgb(64, 123, 255); transform-origin: 387.797px 247.402px 0px;" id="el52org83x46h" class="animable">
		</path>
		<g id="elzeunebms1yt">
			<g style="opacity: 0.3; isolation: isolate; transform-origin: 387.797px 247.402px 0px;" class="animable">
				<path d="M419.76,265.75a83.68,83.68,0,0,0,.86-23.91c-1-9.15-11.26-16.38-24.85-20.6-49.81-15.49-40.55,17.6-40.68,30.59v.45c-.07,9.35,2.93,24.81,11.19,24.31.1,0,.12.18.22.18C423.58,280.16,418.39,272.66,419.76,265.75Z" style="fill: rgb(255, 255, 255); transform-origin: 387.797px 247.402px 0px;" id="elrxy2lb2l64" class="animable">
				</path>
			</g>
		</g>
		<path d="M272.62,124.72a23.4,23.4,0,0,0-4.48,5.41,7.9,7.9,0,0,0-.59,6.8c1,2.14,3.58,3.59,5.78,2.75,1.95-.75,3.06-2.94,5-3.69,2.43-.94,5,.68,7.18,2.16s4.95,2.9,7.22,1.62c1.8-1,2.4-3.47,1.83-5.46s-2.32-3.31-3.68-4.88C280.14,117,272.62,124.72,272.62,124.72Z" style="fill: rgb(38, 50, 56); transform-origin: 280.904px 131.311px 0px;" id="el3p2k4n2ve5i" class="animable">
		</path>
		<g id="el6nemh01chtt">
			<path d="M277.7,142.41c9.23.86,16.45,4.35,16.13,7.79s-8.07,5.53-17.3,4.66-16.45-4.34-16.13-7.78S268.47,141.55,277.7,142.41Z" style="opacity: 0.1; transform-origin: 277.113px 148.639px 0px;" class="animable">
			</path>
		</g>
		<path d="M345.45,124.65a23.48,23.48,0,0,1,4.49,5.41,7.87,7.87,0,0,1,.6,6.79c-1,2.15-3.58,3.6-5.77,2.76-2-.74-3.06-2.93-5-3.68-2.44-.94-5,.7-7.17,2.17s-4.95,2.91-7.22,1.64c-1.8-1-2.41-3.46-1.84-5.45s2.32-3.33,3.66-4.9C337.91,116.92,345.45,124.65,345.45,124.65Z" style="fill: rgb(38, 50, 56); transform-origin: 337.188px 131.256px 0px;" id="el4m6p7wz5ysp" class="animable">
		</path>
		<g id="el2nt1x03vubu">
			<path d="M357.71,147c.33,3.43-6.89,6.93-16.12,7.81s-17-1.19-17.3-4.63,6.89-6.94,16.12-7.82S357.38,143.55,357.71,147Z" style="opacity: 0.1; transform-origin: 341.002px 148.584px 0px;" class="animable">
			</path>
		</g>
		<path d="M218.4,120l-.9-.44c10-20.6,23.84-32.65,33.71-39.12l.55.83C242,87.68,228.28,99.6,218.4,120Z" style="fill: rgb(64, 123, 255); transform-origin: 234.631px 100.221px 0px;" id="elg0cil3whsgk" class="animable">
		</path>
		<path d="M259,77l-.46-.89a74.67,74.67,0,0,1,8.58-3.82l.34.94A73.69,73.69,0,0,0,259,77Z" style="fill: rgb(64, 123, 255); transform-origin: 263px 74.6445px 0px;" id="el9kevg45ztn5" class="animable">
		</path>
	</g>
	<g id="freepik--Character--inject-66" style="transform-origin: 192.779px 263.463px 0px;" class="animable">
		<polygon points="221.57 389.83 229.33 386.87 234.12 405.62 226.36 408.59 221.57 389.83" style="fill: rgb(255, 195, 189); transform-origin: 227.845px 397.73px 0px;" id="el6xkpwihu7kt" class="animable">
		</polygon>
		<path d="M236.12,404.31c6.52,1,7.69.45,14.2-.8,1.4-.26,1.87,3.28-1.26,4.61-5.19,2.2-5.36,2.2-9.74,4.08-3.79,1.6-8.06,3.63-11,4.95a1.31,1.31,0,0,1-.28.09,1.22,1.22,0,0,1-1.4-1l-1.38-7.45a.74.74,0,0,1,.43-.8l8.34-3.54A3.9,3.9,0,0,1,236.12,404.31Z" style="fill: rgb(38, 50, 56); transform-origin: 238.326px 410.375px 0px;" id="el0j61oenjoyqf" class="animable">
		</path>
		<g id="eld9mu2t1c60d">
			<polygon points="221.56 389.84 224.03 399.51 231.79 396.54 229.33 386.88 221.56 389.84" style="opacity: 0.2; isolation: isolate; transform-origin: 226.675px 393.195px 0px;" class="animable">
			</polygon>
		</g>
		<path d="M233.89,393.37,221,398.87s-17.67-61.54-22.58-83-23.44-97.78-23.44-97.78l28.12-.8s13.06,68.63,16.45,93.74C223,337.15,233.89,393.37,233.89,393.37Z" style="fill: rgb(38, 50, 56); transform-origin: 204.436px 308.08px 0px;" id="elerd6wr60tfl" class="animable">
		</path>
		<g id="elkti7vai7fwb">
			<path d="M192.62,290.84C189.55,277.52,186,262,183,249l4.24-3.56C193.26,253.57,194.2,276,192.62,290.84Z" style="opacity: 0.2; isolation: isolate; transform-origin: 188.15px 268.141px 0px;" class="animable">
			</path>
		</g>
		<path d="M196.05,217.49s-8.89,103-15.82,118.63c0,0-6.76,19.85-13.79,36.48-1.82,4.26-3.63,8.31-5.36,11.76-2.49,5-4.63,8.34-6,8.72-6,1.64-11-6.21-11-6.21l17.31-62.43h0c0-1,0-1.95.05-2.87.59-29.59,2.47-103.73,2.47-103.73Z" style="fill: rgb(38, 50, 56); transform-origin: 170.064px 305.396px 0px;" id="el5jtqs81qml6" class="animable">
		</path>
		<polygon points="147.61 385.3 155.12 388.84 146.52 406.04 139.01 402.5 147.61 385.3" style="fill: rgb(255, 195, 189); transform-origin: 147.065px 395.67px 0px;" id="elwwdjlduw1q" class="animable">
		</polygon>
		<path d="M150.08,403.62c1.07,2.54,4.55,6.33,9.79,10.35,1.16.88-.72,3.8-3.87,2.32s-9.94-5-12.21-6.05c-3.71-1.75-6-2.56-8.91-3.93a1.28,1.28,0,0,1-.25-.15,1.21,1.21,0,0,1-.22-1.7l4.63-6a.71.71,0,0,1,.88-.21l9.16,4.32A2,2,0,0,1,150.08,403.62Z" style="fill: rgb(38, 50, 56); transform-origin: 147.186px 407.439px 0px;" id="el3fwur82fag6" class="animable">
		</path>
		<g id="el081w56wlkq0h">
			<polygon points="144.03 392.41 151.55 395.96 155.12 388.84 147.61 385.3 144.03 392.41" style="opacity: 0.2; isolation: isolate; transform-origin: 149.575px 390.63px 0px;" class="animable">
			</polygon>
		</g>
		<polygon points="160.27 390.57 143.11 382.86 141.51 388.02 156.61 395.15 160.27 390.57" style="fill: rgb(64, 123, 255); transform-origin: 150.89px 389.005px 0px;" id="elrj34aip5m9n" class="animable">
		</polygon>
		<path d="M150.94,405.07a2.5,2.5,0,0,0,1.63.3,1.19,1.19,0,0,0,.83-.8.61.61,0,0,0-.07-.65c-.63-.82-3.75-.48-4.11-.43a.18.18,0,0,0-.16.14.19.19,0,0,0,.06.2A9.75,9.75,0,0,0,150.94,405.07Zm1.85-1a.55.55,0,0,1,.23.11.24.24,0,0,1,0,.27.77.77,0,0,1-.55.53,3.94,3.94,0,0,1-2.73-1.13,8.2,8.2,0,0,1,3,.22Z" style="fill: rgb(64, 123, 255); transform-origin: 151.256px 404.389px 0px;" id="eldo7mki3rodu" class="animable">
		</path>
		<path d="M149.15,403.89a.09.09,0,0,0,.08,0c1-.05,3.26-1,3.5-1.92a.64.64,0,0,0-.35-.73,1,1,0,0,0-.86-.13c-1.21.31-2.43,2.42-2.47,2.47a.2.2,0,0,0,0,.2A.14.14,0,0,0,149.15,403.89Zm2.94-2.32.09,0c.22.11.19.26.16.31-.13.53-1.67,1.32-2.72,1.54a4.69,4.69,0,0,1,2-1.93A.72.72,0,0,1,152.09,401.57Z" style="fill: rgb(64, 123, 255); transform-origin: 150.887px 402.482px 0px;" id="eln17wk6qk7cr" class="animable">
		</path>
		<polygon points="233.96 387.54 217.31 394.64 220.2 399.58 234.79 393.36 233.96 387.54" style="fill: rgb(64, 123, 255); transform-origin: 226.05px 393.56px 0px;" id="elpine4rkoq7n" class="animable">
		</polygon>
		<path d="M235.18,405.25h0c1.33-.28,3.65-.93,4.17-2a1.07,1.07,0,0,0,0-1.08.61.61,0,0,0-.5-.36c-1.14-.11-3.55,2.74-3.82,3.08a.2.2,0,0,0,0,.23A.17.17,0,0,0,235.18,405.25Zm3.56-3h0a.23.23,0,0,1,.19.15.72.72,0,0,1,0,.67c-.29.62-1.52,1.23-3.3,1.67,1-1.11,2.4-2.47,3.07-2.49Z" style="fill: rgb(64, 123, 255); transform-origin: 237.246px 403.527px 0px;" id="el5ntm666mms" class="animable">
		</path>
		<path d="M235.18,405.25a.15.15,0,0,0,.13-.05c.75-.81,1.87-3.25,1.36-4.05-.12-.19-.37-.37-.88-.22a1.47,1.47,0,0,0-.88.74c-.63,1.21,0,3.36.07,3.45a.2.2,0,0,0,.14.13Zm.95-4a.2.2,0,0,1,.21.09c.31.49-.38,2.31-1.08,3.27a4.52,4.52,0,0,1,0-2.77,1,1,0,0,1,.63-.55A.62.62,0,0,1,236.13,401.27Z" style="fill: rgb(64, 123, 255); transform-origin: 235.717px 403.063px 0px;" id="elrok6ue26t3e" class="animable">
		</path>
		<g id="freepik--group--inject-66" style="transform-origin: 189.242px 166.99px 0px;" class="animable">
			<path d="M192.9,167.36c.43,2.92,1,5.63,1.6,8.43s1.3,5.52,2.06,8.28a72.89,72.89,0,0,0,4.85,14.19l1.08,2,.27.51.06.13.11.19.31.54a9.53,9.53,0,0,0,1.4,1.7,11.21,11.21,0,0,0,2.89,2,16.82,16.82,0,0,0,2.69,1,50.41,50.41,0,0,0,13.54,1.18c2.58-.17,1.73-4.31,1.73-4.31-2.54-4-10.5-5.55-12.07-6.14a3.65,3.65,0,0,1-1.55-1c0-.13.3.41-.11-.46L211,194c-1.86-4.88-2.25-7.67-3.43-12.75-.65-2.58-1.23-5.2-1.81-7.82s-1.07-5.3-1.54-7.82Z" style="fill: rgb(255, 195, 189); transform-origin: 209.26px 186.59px 0px;" id="elanzwk5lstrl" class="animable">
			</path>
			<path d="M187.55,160.78c-.77,7.18,6.11,23.39,6.11,23.39l17.76-3.75c-3.28-6.08-5-15.1-9-20.76C198.77,154.58,188.39,153,187.55,160.78Z" style="fill: rgb(64, 123, 255); transform-origin: 199.457px 169.783px 0px;" id="elo5c1plj4t8e" class="animable">
			</path>
			<g id="elf25ld9myl5p">
				<path d="M187.55,160.78c-.77,7.18,6.11,23.39,6.11,23.39l17.76-3.75c-3.28-6.08-5-15.1-9-20.76C198.77,154.58,188.39,153,187.55,160.78Z" style="opacity: 0.5; transform-origin: 199.457px 169.783px 0px;" class="animable">
				</path>
			</g>
			<path d="M161.51,157.81a4.31,4.31,0,0,0-3.3,5.12.5.5,0,0,1,0,.12,178.18,178.18,0,0,1,3.56,20.67c.67,5.85,1.06,11.44,1.28,16.51.55,11.86.23,20.91.56,24l39.84.08c4.32-32,.14-55.12-2.5-63.44a7.19,7.19,0,0,0-5.85-5c-1.55-.21-3.39-.42-5.35-.55-.68,0-1.38-.07-2.07-.1a151.07,151.07,0,0,0-17.15,1c-1.08.12-2.17.28-3.23.43C165.2,157.05,163.18,157.45,161.51,157.81Z" style="fill: rgb(64, 123, 255); transform-origin: 181.715px 189.764px 0px;" id="elp994tth4bn" class="animable">
			</path>
			<g id="elp1qvhsxqqpo">
				<path d="M161.51,157.81a4.31,4.31,0,0,0-3.3,5.12.5.5,0,0,1,0,.12,178.18,178.18,0,0,1,3.56,20.67c.67,5.85,1.06,11.44,1.28,16.51.55,11.86.23,20.91.56,24l39.84.08c4.32-32,.14-55.12-2.5-63.44a7.19,7.19,0,0,0-5.85-5c-1.55-.21-3.39-.42-5.35-.55-.68,0-1.38-.07-2.07-.1a151.07,151.07,0,0,0-17.15,1c-1.08.12-2.17.28-3.23.43C165.2,157.05,163.18,157.45,161.51,157.81Z" style="opacity: 0.5; transform-origin: 181.715px 189.764px 0px;" class="animable">
				</path>
			</g>
			<path d="M171,136.89c1.43,5.45,3.15,15.48-.48,19.4,9.3,6.35,15.2,15.23,16.93,13.32.91-1,1.37-12.67.21-14.4-6.24-1.08-6.37-5.65-5.57-10Z" style="fill: rgb(255, 195, 189); transform-origin: 179.436px 153.383px 0px;" id="elq934zsfu47" class="animable">
			</path>
			<g id="el38kf2yuayt2">
				<path d="M175.53,140.29l6.56,4.91a16.89,16.89,0,0,0-.34,3.08c-2.37-.19-5.76-2.57-6.16-5A8.3,8.3,0,0,1,175.53,140.29Z" style="opacity: 0.2; isolation: isolate; transform-origin: 178.756px 144.285px 0px;" class="animable">
				</path>
			</g>
			<path d="M190.48,121.29c3.68.18,5.67,6.54,1.9,11.79S185.53,121.05,190.48,121.29Z" style="fill: rgb(38, 50, 56); transform-origin: 191.158px 127.678px 0px;" id="elhot4pg6g2w" class="animable">
			</path>
			<path d="M172.28,126.75c-.49,7.48-1.15,11.83,2.11,16.11,4.91,6.45,14.5,4.22,17.23-3,2.43-6.47,2.84-17.61-4.06-21.48a10.23,10.23,0,0,0-15.28,8.33Z" style="fill: rgb(255, 195, 189); transform-origin: 182.551px 131.854px 0px;" id="elxm8u35n9uk" class="animable">
			</path>
			<path d="M179.29,127.29a4.06,4.06,0,0,1-3.16,3c-.71,1.62-.93,2.14-.29,3.79l-2.7.57c-.06-2.19-2-2.74-4.16-2.65,1,2.9,2.1,5.76,3.35,8.57a22.75,22.75,0,0,1-7.37-8.71,13.08,13.08,0,0,1-1.43-5.35,7.08,7.08,0,0,1,1.9-5.1,7.65,7.65,0,0,1,6.79-1.69C176.46,120.56,180.71,122.36,179.29,127.29Z" style="fill: rgb(38, 50, 56); transform-origin: 171.549px 130.043px 0px;" id="el8f7qklq78d2" class="animable">
			</path>
			<path d="M183.27,130.25c-.08.61.18,1.14.58,1.19s.77-.4.86-1-.18-1.13-.58-1.18S183.35,129.65,183.27,130.25Z" style="fill: rgb(38, 50, 56); transform-origin: 183.99px 130.352px 0px;" id="ellz8nf0iywm" class="animable">
			</path>
			<path d="M190.08,131.12c-.07.61.19,1.14.58,1.19s.78-.4.85-1-.18-1.13-.57-1.18S190.18,130.52,190.08,131.12Z" style="fill: rgb(38, 50, 56); transform-origin: 190.795px 131.219px 0px;" id="eln4rtb398n8e" class="animable">
			</path>
			<path d="M187.89,131.15a21.62,21.62,0,0,0,2.24,5.53,3.51,3.51,0,0,1-3,.17Z" style="fill: rgb(237, 132, 126); transform-origin: 188.629px 134.129px 0px;" id="el33xqoez1m2b" class="animable">
			</path>
			<path d="M181.43,127.77a.34.34,0,0,0,.36-.08,2.84,2.84,0,0,1,2.43-.89.37.37,0,0,0,.45-.25.19.19,0,0,0,0-.08.34.34,0,0,0-.25-.41h0a3.5,3.5,0,0,0-3.07,1.09.35.35,0,0,0,0,.5h0A.57.57,0,0,0,181.43,127.77Z" style="fill: rgb(38, 50, 56); transform-origin: 182.963px 126.908px 0px;" id="ell3wx9o7k2jh" class="animable">
			</path>
			<path d="M186.09,139.53h0a5.52,5.52,0,0,1-4.37-2.56.19.19,0,0,1,.07-.26.2.2,0,0,1,.27.08,5.2,5.2,0,0,0,4,2.35.2.2,0,0,1,0,.39Z" style="fill: rgb(38, 50, 56); transform-origin: 183.955px 138.109px 0px;" id="el9ymau2mf8b9" class="animable">
			</path>
			<path d="M193.33,129.14a.28.28,0,0,0,.22,0,.35.35,0,0,0,.23-.45,3.57,3.57,0,0,0-2.3-2.32.35.35,0,0,0-.43.25h0a.34.34,0,0,0,.24.42h0a2.88,2.88,0,0,1,1.8,1.83A.31.31,0,0,0,193.33,129.14Z" style="fill: rgb(38, 50, 56); transform-origin: 192.42px 127.762px 0px;" id="elahao2fa1evm" class="animable">
			</path>
			<g id="el8ayezxw0oda">
				<path d="M163.81,161.63c3.28-.76,4.75.32,7.43,4.66,2.47,4,4.63,16,4.63,16,1,6.57,1.74,5.76-4.47,6.76-4,.64-9,1.9-9,1.9S154,163.92,163.81,161.63Z" style="opacity: 0.1; transform-origin: 167.795px 176.178px 0px;" class="animable">
				</path>
			</g>
			<path d="M155.08,168.65c.17,3,.49,5.7.85,8.54s.8,5.62,1.31,8.43a100.14,100.14,0,0,0,4.53,16.86l.89,2.12.23.52.05.14.09.2.27.56a8.69,8.69,0,0,0,1.23,1.82,11.28,11.28,0,0,0,2.7,2.27,16.84,16.84,0,0,0,2.59,1.28,34,34,0,0,0,9.28,2,78.12,78.12,0,0,0,17.29-.52l-.17-5.67-4-.49c-1.34-.16-2.67-.38-4-.57-2.64-.4-5.26-.86-7.75-1.45a29.89,29.89,0,0,1-6.66-2.26,3.65,3.65,0,0,1-1.45-1.13c0-.13.26.44-.07-.47l-.59-1.75a114.21,114.21,0,0,1-3.24-15.29c-.42-2.63-.76-5.29-1.11-8s-.6-5.38-.85-7.92Z" style="fill: rgb(255, 195, 189); transform-origin: 175.734px 190.758px 0px;" id="elmc2lptvmo9j" class="animable">
			</path>
			<path d="M193.87,207.71l5.82-5,2.65,9.27s-5.9,3.15-7.9.21Z" style="fill: rgb(255, 195, 189); transform-origin: 198.105px 208.078px 0px;" id="elczt32wna9s4" class="animable">
			</path>
			<path d="M206.44,204.31l.89,3.78a2.35,2.35,0,0,1-1.55,2.76L202.33,212l-2.64-9.27,4.34-.22A2.35,2.35,0,0,1,206.44,204.31Z" style="fill: rgb(255, 195, 189); transform-origin: 203.541px 207.254px 0px;" id="elj53l949dmw" class="animable">
			</path>
			<path d="M214.76,215.14l-8.2.6a3,3,0,0,1-3.27-3.1l.33-22.74a1.59,1.59,0,0,1,1.44-1.54l10.1-.73a3,3,0,0,1,3.27,3.1l-.3,20.83A3.7,3.7,0,0,1,214.76,215.14Z" style="fill: rgb(64, 123, 255); transform-origin: 210.859px 201.684px 0px;" id="eljrn26pu3j2" class="animable">
			</path>
			<g id="elwpfx7da7w6">
				<path d="M214.76,215.14l-8.2.6a3,3,0,0,1-3.27-3.1l.33-22.74a1.59,1.59,0,0,1,1.44-1.54l10.1-.73a3,3,0,0,1,3.27,3.1l-.3,20.83A3.7,3.7,0,0,1,214.76,215.14Z" style="opacity: 0.2; transform-origin: 210.859px 201.684px 0px;" class="animable">
				</path>
			</g>
			<path d="M215.23,215.53l-8.2.6a3,3,0,0,1-3.27-3.1l.32-22.75a1.6,1.6,0,0,1,1.45-1.53l10.1-.73a3,3,0,0,1,3.27,3.09L218.6,212A3.71,3.71,0,0,1,215.23,215.53Z" style="fill: rgb(64, 123, 255); transform-origin: 211.33px 202.074px 0px;" id="eljhith4wz54g" class="animable">
			</path>
			<g id="el5zbamw3git">
				<path d="M215.15,215.53l-8,.59a3.08,3.08,0,0,1-3.36-3.17l.32-22.59a1.67,1.67,0,0,1,1.53-1.61l9.93-.73a3.08,3.08,0,0,1,3.36,3.17l-.3,20.69A3.79,3.79,0,0,1,215.15,215.53Z" style="fill: rgb(255, 255, 255); opacity: 0.8; transform-origin: 211.359px 202.07px 0px;" class="animable">
				</path>
			</g>
			<path d="M221.25,199.39l-.36.1-3.33.9a2.63,2.63,0,0,0-1.94,2.76l.29,3.38a2.61,2.61,0,0,0,2.6,2.4l3.38,0v-.09l-.35-9.37Z" style="fill: rgb(255, 195, 189); transform-origin: 218.752px 204.16px 0px;" id="elgatfbucps7" class="animable">
			</path>
			<g id="elvr8q7o7ivvg">
				<path d="M209.18,195.23l-3.6.26A1.42,1.42,0,0,1,204,194l.05-3.71a1.64,1.64,0,0,1,1.48-1.57l3.72-.27a1.41,1.41,0,0,1,1.54,1.46l0,3.59A1.74,1.74,0,0,1,209.18,195.23Z" style="fill: rgb(255, 255, 255); opacity: 0.3; transform-origin: 207.393px 191.973px 0px;" class="animable">
				</path>
			</g>
			<path d="M208.85,195l-3.27.24a1.43,1.43,0,0,1-1.55-1.47l.05-3.29a1.75,1.75,0,0,1,1.59-1.69l3.27-.24a1.43,1.43,0,0,1,1.55,1.47l-.05,3.29A1.75,1.75,0,0,1,208.85,195Z" style="fill: rgb(38, 50, 56); transform-origin: 207.26px 191.895px 0px;" id="eld4cvw5hp788" class="animable">
			</path>
			<g id="el09j96d0tw9e9">
				<path d="M208.85,195l-3.27.24a1.43,1.43,0,0,1-1.55-1.47l.05-3.29a1.75,1.75,0,0,1,1.59-1.69l3.27-.24a1.43,1.43,0,0,1,1.55,1.47l-.05,3.29A1.75,1.75,0,0,1,208.85,195Z" style="fill: rgb(255, 255, 255); opacity: 0.1; transform-origin: 207.26px 191.895px 0px;" class="animable">
				</path>
			</g>
			<path d="M213.21,202.28a1.87,1.87,0,0,1-1.7,1.81,1.51,1.51,0,0,1-1.64-1.56,1.87,1.87,0,0,1,1.69-1.81A1.51,1.51,0,0,1,213.21,202.28Z" style="fill: rgb(255, 255, 255); transform-origin: 211.541px 202.404px 0px;" id="elh76mey2egm" class="animable">
			</path>
			<path d="M218.72,199.49l.36,9.46,4.4-1a3.16,3.16,0,0,0,2.4-3.49h0A3.16,3.16,0,0,0,224.1,202Z" style="fill: rgb(255, 195, 189); transform-origin: 222.313px 204.219px 0px;" id="ele9fepm105iu" class="animable">
			</path>
			<path d="M154.45,163.18c-3.74,6.17-.72,25.68-.72,25.68l19.4-3.49s1.13-11.15-2.51-19.74C166.68,156.31,159,155.69,154.45,163.18Z" style="fill: rgb(64, 123, 255); transform-origin: 162.938px 173.453px 0px;" id="elhiejz2rxnqa" class="animable">
			</path>
			<g id="elzz6rk5clih">
				<path d="M154.45,163.18c-3.74,6.17-.72,25.68-.72,25.68l19.4-3.49s1.13-11.15-2.51-19.74C166.68,156.31,159,155.69,154.45,163.18Z" style="opacity: 0.5; transform-origin: 162.938px 173.453px 0px;" class="animable">
				</path>
			</g>
			<path d="M193.81,123.63a25.78,25.78,0,0,0,1.81-3.33c-2.54.73-2.92-.57-4.27-4.09-1.53-4-6.37-6.22-8.86-6.41-17.26-1.36-17.42,8.39-17.46,10a3,3,0,0,0,2,2.6,8.69,8.69,0,0,0,3.45.34c2.49-.1,6.23.47,8.56-.35C188.5,119,192.64,123.86,193.81,123.63Z" style="fill: rgb(38, 50, 56); transform-origin: 180.326px 116.654px 0px;" id="el1qpe6krhpvw" class="animable">
			</path>
			<path d="M176.74,135.8s7.69-3.16,12.15-2.53,4.12,1.24,4.12,1.24,1.87,10.55-8.77,13.35c0,0-7-1.72-9-4.91C175.22,143,176.88,140.72,176.74,135.8Z" style="fill: rgb(64, 123, 255); transform-origin: 184.188px 140.523px 0px;" id="elaedtfq8qqy" class="animable">
			</path>
			<g id="el49h08ozfwwb">
				<path d="M176.74,135.8s7.69-3.16,12.15-2.53,4.12,1.24,4.12,1.24,1.87,10.55-8.77,13.35c0,0-7-1.72-9-4.91C175.22,143,176.88,140.72,176.74,135.8Z" style="fill: rgb(255, 255, 255); opacity: 0.5; transform-origin: 184.188px 140.523px 0px;" class="animable">
				</path>
			</g>
			<g id="elnxtsv2xage">
				<path d="M177.73,137.14s8.09-2.77,11.11-2.16,4.07,1.74,4.07,1.74a14.94,14.94,0,0,1-.34,2.64s-2-2.7-15.06-.57Z" style="fill: rgb(255, 255, 255); opacity: 0.2; transform-origin: 185.211px 137.127px 0px;" class="animable">
				</path>
			</g>
			<g id="el27cs6hpwv58">
				<path d="M177.35,139.58s11.26-1.75,14.57,1.32a13.44,13.44,0,0,1-2.83,4.1s-3.12-2.88-12.26-3.66Z" style="fill: rgb(255, 255, 255); opacity: 0.2; transform-origin: 184.375px 142.041px 0px;" class="animable">
				</path>
			</g>
			<g id="elv5fzuf12fim">
				<path d="M176.48,141.86s10,1.42,10.93,4l-1.94,1s-4.08-.33-9.36-4.34Z" style="fill: rgb(255, 255, 255); opacity: 0.2; transform-origin: 181.76px 144.359px 0px;" class="animable">
				</path>
			</g>
			<path d="M175.58,143.43c-5.18-2.21-4.77-7.12-4.07-9.84a1.09,1.09,0,0,1,.7-.84c1.51-.47,4.76,2.85,5.13,3.23l-.33.36c-.94-1-3.62-3.45-4.69-3.11-.11,0-.28.12-.37.47-.66,2.58-1,7.2,3.81,9.27Z" style="fill: rgb(38, 50, 56); transform-origin: 174.221px 138.066px 0px;" id="eln0w9np6q54" class="animable">
			</path>
			<path d="M167.71,132.94a7.05,7.05,0,0,0,2.87,4.62c2,1.45,3.89-.17,4-2.53.12-2.13-.8-5.44-3.18-5.95S167.35,130.66,167.71,132.94Z" style="fill: rgb(255, 195, 189); transform-origin: 171.127px 133.555px 0px;" id="elreeb5n902os" class="animable">
			</path>
		</g>
	</g>
	<defs>
		<filter id="active" height="200%">
			<feMorphology in="SourceAlpha" result="DILATED" operator="dilate" radius="2">
			</feMorphology>
			<feFlood flood-color="#32DFEC" flood-opacity="1" result="PINK">
			</feFlood>
			<feComposite in="PINK" in2="DILATED" operator="in" result="OUTLINE">
			</feComposite>
			<feMerge>
				<feMergeNode in="OUTLINE">
				</feMergeNode>
				<feMergeNode in="SourceGraphic">
				</feMergeNode>
			</feMerge>
		</filter>
		<filter id="hover" height="200%">
			<feMorphology in="SourceAlpha" result="DILATED" operator="dilate" radius="2">
			</feMorphology>
			<feFlood flood-color="#ff0000" flood-opacity="0.5" result="PINK">
			</feFlood>
			<feComposite in="PINK" in2="DILATED" operator="in" result="OUTLINE">
			</feComposite>
			<feMerge>
				<feMergeNode in="OUTLINE">
				</feMergeNode>
				<feMergeNode in="SourceGraphic">
				</feMergeNode>
			</feMerge>
			<feColorMatrix type="matrix" values="0   0   0   0   0                0   1   0   0   0                0   0   0   0   0                0   0   0   1   0 ">
			</feColorMatrix>
		</filter>
	</defs>
</svg>
